ply
format ascii 1.0
comment VCGLIB generated
comment TextureFile dummy.png
element vertex 274
property float x
property float y
property float z
property float nx
property float ny
property float nz
property float texture_u
property float texture_v
element face 190
property list uchar int vertex_indices
end_header
-30.67584 281.3546 30.67593 0 1 0 0.9481 0.9106
30.6759 281.3546 30.67593 0 1 0 0.9481 0.9984
30.6759 281.3546 -30.67587 0 1 0 0.8549 0.9984
-30.67584 281.3546 -30.67587 0 1 0 0.8549 0.9106
-28.49005 -21.35461 28.93683 -0.3826213 0 0.9239053 0.0011 0.4552
28.49023 -21.35461 28.93683 0.3826213 0 0.9239053 0.0011 0.2297
28.49023 212.3686 28.93683 0.3826213 0 0.9239053 0.9264 0.2297
-28.49005 212.3686 28.93683 -0.3826213 0 0.9239053 0.9264 0.4552
28.93695 -21.35461 28.49023 0.9238538 0 0.3827456 0.0011 0.2279
28.93695 -21.35461 -28.49008 0.9238987 0 -0.3826371 0.0011 0.0023
28.93695 212.3686 -28.49008 0.9238987 0 -0.3826371 0.9264 0.0023
28.93695 212.3686 28.49023 0.9238538 0 0.3827456 0.9264 0.2279
28.49023 -21.35461 -28.93689 0 0 -1 0.0011 0.91
-28.49005 -21.35461 -28.93689 -0.3827298 0 -0.9238603 0.0011 0.6844
-28.49005 212.3686 -28.93689 -0.3827298 0 -0.9238603 0.9264 0.6844
28.49023 212.3686 -28.93689 0 0 -1 0.9264 0.91
-28.93677 -21.35461 -28.49008 -0.9238987 0 -0.3826371 0.0011 0.6826
-28.93677 -21.35461 28.49023 -0.9238538 0 0.3827456 0.0011 0.457
-28.93677 212.3686 28.49023 -0.9238538 0 0.3827456 0.9264 0.457
-28.93677 212.3686 -28.49008 -0.9238987 0 -0.3826371 0.9264 0.6826
30.6759 274.7331 31.12253 0.5054087 0 0.8628801 0.9982 0.9464
30.6759 280.8546 31.12253 0.158481 0.2986271 0.9411194 0.9982 0.9599
-30.67584 280.8546 31.12253 -0.4011007 0.1889489 0.8963351 0.8629 0.9599
-30.67584 274.7331 31.12253 -0.252705 0 0.9675434 0.8629 0.9464
31.12256 274.7331 -30.67587 0.8628323 0 -0.5054902 0.8626 0.9434
31.12256 280.8546 -30.67587 0.9411049 0.2986585 -0.1585073 0.8626 0.9299
31.12256 280.8546 30.67593 0.9342819 0.3565351 0 0.9979 0.9299
31.12256 274.7331 30.67593 1 0 0 0.9979 0.9434
-30.67584 274.7331 -31.12247 -0.50541 0 -0.8628793 0.9953 0.964
-30.67584 280.8546 -31.12247 -0.1584814 0.2986272 -0.9411193 0.9953 0.9775
30.6759 280.8546 -31.12247 0 0.3565034 -0.934294 0.86 0.9775
30.6759 274.7331 -31.12247 0 0 -1 0.86 0.964
-31.1225 274.7331 30.67593 -1 0 0 0.9961 0.9804
-31.1225 280.8546 30.67593 -0.9342823 0.3565342 0 0.9961 0.9939
-31.1225 280.8546 -30.67587 -0.9342823 0.3565342 0 0.8608 0.9939
-31.1225 274.7331 -30.67587 -1 0 0 0.8608 0.9804
41.55505 236.0248 42.05502 0.5054495 0 0.8628562 0.4275 0.9984
41.55505 270.3705 42.05502 0.2527248 0 0.9675382 0.4275 0.9109
-41.55499 270.3705 42.05502 -0.5054495 0 0.8628562 0.6392 0.9109
-41.55499 236.0248 42.05502 -0.2527248 0 0.9675382 0.6392 0.9984
42.05505 236.0248 -41.55499 0.8628562 0 -0.5054495 0.2144 0.9984
42.05505 270.3705 -41.55499 0.9675382 0 -0.2527248 0.2144 0.9109
42.05505 270.3705 41.55502 0.8628562 0 0.5054495 0.4262 0.9109
42.05505 236.0248 41.55502 0.9675382 0 0.2527248 0.4262 0.9984
-41.55499 236.0248 -42.05499 0 0 -1 0.0014 0.9984
-41.55499 270.3705 -42.05499 0 0 -1 0.0014 0.9109
41.55505 270.3705 -42.05499 0.5054495 0 -0.8628562 0.2132 0.9109
41.55505 236.0248 -42.05499 0.2527248 0 -0.9675382 0.2132 0.9984
-42.05499 236.0248 41.55502 -0.8628562 0 0.5054495 0.6405 0.9984
-42.05499 270.3705 41.55502 -0.9675382 0 0.2527248 0.6405 0.9109
-42.05499 270.3705 -41.55499 -0.8628562 0 -0.5054495 0.8523 0.9109
-42.05499 236.0248 -41.55499 -0.9675382 0 -0.2527248 0.8523 0.9984
41.55505 270.8705 41.55502 0 0.937787 0.3472111 0.9972 0.7812
-41.55499 270.8705 41.55502 0 0.937787 0.3472112 0.9972 0.5814
-41.55499 270.8705 -41.55499 -0.2919866 0.9546053 -0.05892871 0.9987 0.5805
41.55505 270.8705 -41.55499 0 0.9377873 -0.3472103 0.9974 0.5812
33.11914 212.8686 33.61911 0.5054495 0 0.8628562 0.9641 0.6689
33.11914 223.9467 33.61911 0.2527248 0 0.9675382 0.9327 0.6689
-33.11908 223.9467 33.61911 -0.5054495 0 0.8628562 0.9327 0.481
-33.11908 212.8686 33.61911 -0.2527248 0 0.9675382 0.9641 0.481
33.61914 212.8686 -33.11899 0.8628562 0 -0.5054495 0.9641 0.8582
33.61914 223.9467 -33.11899 0.9675382 0 -0.2527248 0.9327 0.8582
33.61914 223.9467 33.11911 0.8628562 0 0.5054495 0.9327 0.6703
33.61914 212.8686 33.11911 0.9675382 0 0.2527248 0.9641 0.6703
-33.11908 212.8686 -33.61899 -0.5054495 0 -0.8628562 0.9641 0.2902
-33.11908 223.9467 -33.61899 -0.2527248 0 -0.9675382 0.9327 0.2902
33.11914 223.9467 -33.61899 0 0 -1 0.9327 0.1023
33.11914 212.8686 -33.61899 0 0 -1 0.9641 0.1023
-33.61908 212.8686 33.11911 -0.8628562 0 0.5054495 0.9641 0.4795
-33.61908 223.9467 33.11911 -0.9675382 0 0.2527248 0.9327 0.4795
-33.61908 223.9467 -33.11899 -0.8628562 0 -0.5054495 0.9327 0.2916
-33.61908 212.8686 -33.11899 -0.9675382 0 -0.2527248 0.9641 0.2916
37.56226 223.9467 38.06223 0 0 1 0.9648 0.8596
37.56226 235.5248 38.06223 0 0 1 0.9319 0.8596
-37.56219 235.5248 38.06223 -0.5054495 0 0.8628562 0.9319 0.6465
-37.56219 223.9467 38.06223 -0.2527248 0 0.9675382 0.9648 0.6465
38.06226 224.4467 -37.56216 0.8628562 0 -0.5054495 0.962 0.2159
38.06226 235.5248 -37.56216 0.9675382 0 -0.2527248 0.9306 0.2161
38.06226 235.5248 37.56223 0.8628562 0 0.5054495 0.9296 0.0029
38.06226 224.4467 37.56223 0.9675382 0 0.2527248 0.961 0.0028
-37.56219 224.4467 -38.06216 -0.547143 -0.1586156 -0.8218732 0.963 0.4304
-37.56219 235.5248 -38.06216 -0.2527248 0 -0.9675382 0.9316 0.4306
37.56226 235.5248 -38.06216 0.5054495 0 -0.8628562 0.9306 0.2175
37.56226 224.4467 -38.06216 0.2527248 0 -0.9675382 0.962 0.2173
-38.06219 224.4467 37.56223 -0.8628562 0 0.5054495 0.963 0.6451
-38.06219 235.5248 37.56223 -0.9675382 0 0.2527248 0.9316 0.6451
-38.06219 235.5248 -37.56216 -0.8628562 0 -0.5054495 0.9316 0.432
-38.06219 224.4467 -37.56216 -0.9190819 -0.1615586 -0.3594266 0.963 0.4321
-37.56219 223.9467 37.56223 0 -1 0 0.988 0.7719
37.56226 223.9467 37.56223 0 -1 0 0.988 0.5913
-37.56219 223.9467 -37.56216 -0.2527248 -0.9675382 0 0.9895 0.7705
37.56226 223.9467 -37.56216 0 -0.9238795 -0.3826835 0.9875 0.7712
33.11914 212.3686 33.11911 0 -0.9238795 0.3826835 0.977 0.6014
-33.11908 212.3686 33.11911 0 -0.9238795 0.3826835 0.977 0.7606
-33.11908 212.3686 -33.11899 -0.2527248 -0.9675382 0 0.9783 0.7602
33.11914 212.3686 -33.11899 0 -0.9238795 -0.3826835 0.9771 0.7611
-41.55499 235.5248 -41.55499 0 -1 0 0.9973 0.5815
41.55505 235.5248 -41.55499 0 -1 0 0.9973 0.7812
-41.55499 235.5248 41.55502 0 -1 0 0.9973 0.781
41.55505 235.5248 41.55502 0 -1 0 0.9973 0.5812
30.6759 274.7331 31.12253 0 0.937787 0.3472112 0.9722 0.7551
-30.67584 274.7331 31.12253 0 0.937787 0.3472112 0.9722 0.6076
-31.1225 274.7331 30.67593 -0.2919866 0.9546053 0.05892878 0.9736 0.7541
-31.1225 274.7331 -30.67587 -0.2634079 0.9606193 -0.08846939 0.9736 0.6067
-41.55499 270.8705 41.55502 -0.2634079 0.9606193 0.08846949 0.9987 0.7803
-30.67584 274.7331 -31.12247 0 0.9377873 -0.3472103 0.9723 0.7548
30.6759 274.7331 -31.12247 0 0.9377873 -0.3472103 0.9723 0.6074
-41.55499 270.8705 -41.55499 0 0.9377873 -0.3472103 0.9974 0.781
31.12256 274.7331 -30.67587 0.2919864 0.9546053 -0.05892883 0.973 0.7542
31.12256 274.7331 30.67593 0.2634078 0.9606193 0.08846969 0.973 0.6067
41.55505 270.8705 41.55502 0.2919865 0.9546053 0.05892891 0.9981 0.5806
41.55505 270.8705 -41.55499 0.2634077 0.9606194 -0.08846958 0.9981 0.7803
-33.11908 223.9467 33.61911 0 -1 0 0.9785 0.7612
33.11914 223.9467 33.61911 0 -1 0 0.9785 0.602
37.56226 223.9467 38.06223 0 -1 0 0.9892 0.5913
-37.56219 223.9467 38.06223 0 -1 0 0.9892 0.7719
-33.61908 223.9467 -33.11899 0 -1 0 0.9801 0.7599
-33.61908 223.9467 33.11911 0 -1 0 0.9801 0.6006
-37.56219 223.9467 37.56223 -0.3826835 -0.9238796 0 0.9895 0.59
33.11914 223.9467 -33.61899 0 -1 0 0.978 0.7605
-33.11908 223.9467 -33.61899 0 -1 0 0.978 0.6013
-37.56219 223.9467 -37.56216 0 -0.9238795 -0.3826835 0.9875 0.5906
33.61914 223.9467 33.11911 0 -1 0 0.9785 0.7602
33.61914 223.9467 -33.11899 0 -1 0 0.9785 0.601
37.56226 223.9467 -37.56216 0.3051016 -0.9523198 0 0.988 0.5903
37.56226 223.9467 37.56223 0.3826835 -0.9238795 0 0.988 0.7709
-28.49005 212.3686 28.93683 0 -1 0 0.9669 0.7495
28.49023 212.3686 28.93683 0 -1 0 0.9669 0.6125
-33.11908 212.3686 33.11911 -0.3051016 -0.9523198 0 0.9783 0.6009
-28.93677 212.3686 -28.49008 0 -1 0 0.9682 0.749
-28.93677 212.3686 28.49023 0 -1 0 0.9682 0.6121
-33.11908 212.3686 -33.11899 0 -0.9238795 -0.3826835 0.9771 0.6018
28.49023 212.3686 -28.93689 0 -1 0 0.9671 0.7499
-28.49005 212.3686 -28.93689 0 -1 0 0.9671 0.613
33.11914 212.3686 -33.11899 0.3051016 -0.9523198 0 0.9779 0.6007
33.11914 212.3686 33.11911 0.2527248 -0.9675382 0 0.9779 0.7599
28.93695 212.3686 28.49023 0 -1 0 0.9678 0.7488
28.93695 212.3686 -28.49008 0 -1 0 0.9678 0.6118
37.56226 235.5248 -38.06216 0 -1 0 0.9889 0.7716
-37.56219 235.5248 -38.06216 0 -1 0 0.9889 0.5911
-37.56219 235.5248 38.06223 0 -1 0 0.989 0.7714
37.56226 235.5248 38.06223 0 -1 0 0.989 0.5908
38.06226 235.5248 37.56223 0 -1 0 0.9897 0.7707
38.06226 235.5248 -37.56216 0 -1 0 0.9897 0.5901
41.55505 235.5248 -41.55499 0 -1 0 0.9981 0.5805
41.55505 235.5248 41.55502 0 -1 0 0.9981 0.7803
-41.55499 235.5248 41.55502 0 -1 0 0.9987 0.5806
-41.55499 235.5248 -41.55499 0 -1 0 0.9987 0.7803
-38.06219 235.5248 -37.56216 0 -1 0 0.9903 0.7708
-38.06219 235.5248 37.56223 0 -1 0 0.9903 0.5902
-30.67584 281.3546 30.67593 -0.5977978 0.5340236 0.5978769 0.9898 0.8108
-31.1225 280.8546 30.67593 -0.5977978 0.5340236 0.5978769 0.9912 0.81
-30.67584 280.8546 31.12253 -0.5977978 0.5340236 0.5978769 0.9912 0.8115
30.6759 280.8546 31.12253 0.5977961 0.5340244 0.5978777 0.9907 0.8103
31.12256 280.8546 30.67593 0.5977961 0.5340244 0.5978777 0.9907 0.8118
30.6759 281.3546 30.67593 0.5977961 0.5340244 0.5978777 0.9893 0.8111
-30.67584 281.3546 -30.67587 -0.5977978 0.5340236 -0.5978769 0.9896 0.8106
-30.67584 280.8546 -31.12247 -0.5977978 0.5340236 -0.5978769 0.991 0.8098
-31.1225 280.8546 -30.67587 -0.5977978 0.5340236 -0.5978769 0.991 0.8114
31.12256 280.8546 -30.67587 0.5977961 0.5340244 -0.5978777 0.9912 0.8092
30.6759 280.8546 -31.12247 0.5977961 0.5340244 -0.5978777 0.9912 0.8107
30.6759 281.3546 -30.67587 0.5977961 0.5340244 -0.5978777 0.9898 0.8099
30.6759 274.7331 31.12253 0.1755555 0.9686858 0.1755795 0.9719 0.6057
-30.67584 274.7331 31.12253 -0.1755559 0.9686858 0.1755791 0.9725 0.7552
30.6759 274.7331 -31.12247 0.1755553 0.9686859 -0.1755793 0.9719 0.7553
-30.67584 274.7331 -31.12247 -0.1755557 0.9686859 -0.1755789 0.9725 0.6056
41.55505 270.8705 41.55502 0.5545192 0.7514018 0.3576366 0.9823 0.6311
41.55505 270.3705 42.05502 0.2008131 0.6927028 0.6927028 0.9803 0.6317
42.05505 270.3705 41.55502 0.6738874 0.6738874 0.3029055 0.9806 0.6311
-41.55499 270.8705 41.55502 -0.6738874 0.6738874 0.3029055 0.984 0.7936
-42.05499 270.3705 41.55502 -0.6927028 0.6927028 0.2008131 0.9857 0.7935
-41.55499 270.3705 42.05502 -0.5773503 0.5773503 0.5773503 0.9849 0.795
-41.55499 270.8705 -41.55499 -0.3029054 0.6738873 -0.6738873 0.9834 0.7954
-41.55499 270.3705 -42.05499 -0.2008131 0.6927028 -0.6927028 0.9851 0.7954
-42.05499 270.3705 -41.55499 -0.5773503 0.5773503 -0.5773503 0.9843 0.7969
41.55505 270.8705 -41.55499 0.5773503 0.5773503 -0.5773503 0.9893 0.8101
42.05505 270.3705 -41.55499 0.5773503 0.5773503 -0.5773503 0.9908 0.8093
41.55505 270.3705 -42.05499 0.5773503 0.5773503 -0.5773503 0.9908 0.811
-42.05499 236.0248 41.55502 -0.6738874 -0.6738874 0.3029055 0.9834 0.6345
-41.55499 235.5248 41.55502 -0.5545192 -0.7514018 0.3576366 0.9816 0.6344
-41.55499 236.0248 42.05502 -0.2008131 -0.6927028 0.6927028 0.9833 0.6344
41.55505 236.0248 42.05502 0.5773503 -0.5773503 0.5773503 0.9802 0.6312
41.55505 235.5248 41.55502 0.6738874 -0.6738874 0.3029055 0.9811 0.6327
42.05505 236.0248 41.55502 0.6927028 -0.6927028 0.2008131 0.9794 0.6327
42.05505 236.0248 -41.55499 0.5773503 -0.5773503 -0.5773503 0.9804 0.6288
41.55505 235.5248 -41.55499 0.3029054 -0.6738873 -0.6738873 0.9812 0.6303
41.55505 236.0248 -42.05499 0.2008131 -0.6927028 -0.6927028 0.9795 0.6303
-41.55499 236.0248 -42.05499 -0.5773503 -0.5773503 -0.5773503 0.9899 0.8118
-41.55499 235.5248 -41.55499 -0.5773503 -0.5773503 -0.5773503 0.9908 0.8103
-42.05499 236.0248 -41.55499 -0.5773503 -0.5773503 -0.5773503 0.9916 0.8118
33.61914 212.8686 33.11911 0.5773503 -0.5773503 0.5773503 0.99 0.8107
33.11914 212.8686 33.61911 0.5773503 -0.5773503 0.5773503 0.99 0.809
33.11914 212.3686 33.11911 0.5773503 -0.5773503 0.5773503 0.9915 0.8099
33.11914 212.3686 -33.11899 0.5773503 -0.5773503 -0.5773503 0.9913 0.8104
33.11914 212.8686 -33.61899 0.5773503 -0.5773503 -0.5773503 0.9898 0.8112
33.61914 212.8686 -33.11899 0.5773503 -0.5773503 -0.5773503 0.9898 0.8095
-33.11908 212.3686 -33.11899 -0.5773503 -0.5773503 -0.5773503 0.9906 0.8106
-33.61908 212.8686 -33.11899 -0.5773503 -0.5773503 -0.5773503 0.9891 0.8115
-33.11908 212.8686 -33.61899 -0.5773503 -0.5773503 -0.5773503 0.9891 0.8098
-33.11908 212.8686 33.61911 -0.5773503 -0.5773503 0.5773503 0.9891 0.8125
-33.61908 212.8686 33.11911 -0.5773503 -0.5773503 0.5773503 0.9891 0.8108
-33.11908 212.3686 33.11911 -0.5773503 -0.5773503 0.5773503 0.9906 0.8117
37.56226 235.5248 38.06223 0 -1 0 0.9885 0.7719
-37.56219 235.5248 38.06223 0 -1 0 0.9891 0.589
-37.56219 235.5248 -38.06216 0 -1 0 0.9891 0.772
37.56226 235.5248 -38.06216 0 -1 0 0.9885 0.5889
-38.06219 224.4467 37.56223 -0.7071068 -0.7071068 0 0.9907 0.59
-37.56219 223.9467 38.06223 -0.7071068 -0.7071068 0 0.9895 0.5888
37.56226 223.9467 38.06223 0.7071068 -0.7071068 0 0.988 0.7721
38.06226 224.4467 37.56223 0.7071068 -0.7071068 0 0.9892 0.7709
38.06226 224.4467 -37.56216 0.5773503 -0.5773503 -0.5773503 0.9899 0.8113
37.56226 223.9467 -37.56216 0.5773503 -0.5773503 -0.5773503 0.9908 0.8098
37.56226 224.4467 -38.06216 0.5773503 -0.5773503 -0.5773503 0.9916 0.8113
-37.56219 223.9467 -37.56216 -0.5773503 -0.5773503 -0.5773503 0.9647 0.4313
33.11914 223.9467 33.61911 0 -1 0 0.9773 0.7614
-33.11908 223.9467 33.61911 0 -1 0 0.9789 0.5994
-33.11908 223.9467 -33.61899 0 -1 0 0.9789 0.7611
33.11914 223.9467 -33.61899 0 -1 0 0.9773 0.5998
28.49023 212.3686 28.93683 0 -1 0 0.9668 0.7499
-28.49005 212.3686 28.93683 0 -1 0 0.9671 0.611
-28.49005 212.3686 -28.93689 0 -1 0 0.9671 0.7501
28.49023 212.3686 -28.93689 0 -1 0 0.9668 0.6107
-30.67584 281.3546 30.67593 0 0.666158 0.7458107 0.8629 0.9611
30.6759 281.3546 30.67593 0 0.666158 0.7458107 0.9982 0.9611
30.6759 281.3546 30.67593 0.7457654 0.6662087 0 0.9979 0.9288
30.6759 281.3546 -30.67587 0.7457654 0.6662087 0 0.8626 0.9288
30.6759 281.3546 -30.67587 0 0.666158 -0.7458107 0.86 0.9786
-30.67584 281.3546 -30.67587 0 0.666158 -0.7458107 0.9953 0.9786
-30.67584 281.3546 -30.67587 -0.7457668 0.6662071 0 0.8608 0.995
-30.67584 281.3546 30.67593 -0.7457668 0.6662071 0 0.9961 0.995
-31.1225 280.8546 30.67593 -0.70706 0 0.7071536 0.8619 0.9599
-31.1225 274.7331 30.67593 -0.70706 0 0.7071536 0.8619 0.9464
28.49023 -21.35461 -28.93689 0.7071777 0 -0.7070358 0.0011 0.0005
28.49023 212.3686 -28.93689 0.7071777 0 -0.7070358 0.9264 0.0005
31.12256 274.7331 30.67593 0.7070585 0 0.7071551 0.9992 0.9464
31.12256 280.8546 30.67593 0.7070585 0 0.7071551 0.9992 0.9599
30.6759 274.7331 -31.12247 0.7070585 0 -0.7071551 0.8616 0.9434
30.6759 280.8546 -31.12247 0.7070585 0 -0.7071551 0.8616 0.9299
-31.1225 274.7331 -30.67587 -0.70706 0 -0.7071536 0.9963 0.964
-31.1225 280.8546 -30.67587 -0.70706 0 -0.7071536 0.9963 0.9775
-41.55499 236.0248 -42.05499 -0.7071068 0 -0.7071068 0.8535 0.9984
-41.55499 270.3705 -42.05499 -0.7071068 0 -0.7071068 0.8535 0.9109
-41.55499 270.8705 41.55502 0 0.7071068 0.7071068 0.982 0.7948
-41.55499 270.3705 42.05502 0 0.7071068 0.7071068 0.9803 0.7948
-41.55499 270.8705 -41.55499 -0.7071068 0.7071068 0 0.98 0.6305
-42.05499 270.3705 -41.55499 -0.7071068 0.7071068 0 0.9817 0.6304
41.55505 270.8705 -41.55499 0 0.7071068 -0.7071068 0.9794 0.6324
41.55505 270.3705 -42.05499 0 0.7071068 -0.7071068 0.9811 0.6323
42.05505 270.3705 -41.55499 0.7071068 0.7071068 0 0.9806 0.7942
41.55505 270.8705 -41.55499 0.7071068 0.7071068 0 0.9823 0.7942
41.55505 235.5248 41.55502 0 -0.7071068 0.7071068 0.9816 0.7975
41.55505 236.0248 42.05502 0 -0.7071068 0.7071068 0.9833 0.7975
41.55505 235.5248 -41.55499 0.7071068 -0.7071068 0 0.9852 0.7958
42.05505 236.0248 -41.55499 0.7071068 -0.7071068 0 0.9835 0.7958
-41.55499 235.5248 -41.55499 0 -0.7071068 -0.7071068 0.9853 0.7934
-41.55499 236.0248 -42.05499 0 -0.7071068 -0.7071068 0.9836 0.7934
-42.05499 236.0248 -41.55499 -0.7071068 -0.7071068 0 0.9834 0.7976
-41.55499 235.5248 -41.55499 -0.7071068 -0.7071068 0 0.9817 0.7976
33.11914 212.8686 -33.61899 0.7071068 0 -0.7071068 0.9641 0.8596
33.11914 223.9467 -33.61899 0.7071068 0 -0.7071068 0.9327 0.8596
33.11914 212.8686 33.61911 0 -0.7071068 0.7071068 0.9782 0.6014
-33.11908 212.8686 33.61911 0 -0.7071068 0.7071068 0.9782 0.7606
33.61914 212.8686 -33.11899 0.7071068 -0.7071068 0 0.9791 0.6007
33.61914 212.8686 33.11911 0.7071068 -0.7071068 0 0.9791 0.7599
-33.11908 212.8686 -33.61899 0 -0.7071068 -0.7071068 0.9783 0.6018
33.11914 212.8686 -33.61899 0 -0.7071068 -0.7071068 0.9783 0.7611
-33.61908 212.8686 33.11911 -0.7071068 -0.7071068 0 0.9795 0.6009
-33.61908 212.8686 -33.11899 -0.7071068 -0.7071068 0 0.9795 0.7602
37.56226 223.9467 38.06223 0.7071068 0 0.7071068 0.9624 0.0014
37.56226 235.5248 38.06223 0.7071068 0 0.7071068 0.9296 0.0015
38.06226 224.4467 -37.56216 0.7071068 -0.7071068 0 0.9892 0.5903
37.56226 224.4467 -38.06216 0 -0.7071068 -0.7071068 0.9887 0.7712
-37.56219 224.4467 -38.06216 0 -0.7071068 -0.7071068 0.9887 0.5906
-38.06219 224.4467 -37.56216 -0.7071068 -0.7071068 0 0.9907 0.7705
3 0 1 2 
3 0 2 3 
3 5 6 7 
3 5 7 4 
3 9 10 11 
3 9 11 8 
3 13 14 15 
3 13 15 12 
3 17 18 19 
3 17 19 16 
3 21 22 23 
3 21 23 20 
3 25 26 27 
3 25 27 24 
3 29 30 31 
3 29 31 28 
3 33 34 35 
3 33 35 32 
3 37 38 39 
3 37 39 36 
3 41 42 43 
3 41 43 40 
3 45 46 47 
3 45 47 44 
3 49 50 51 
3 49 51 48 
3 100 101 53 
3 100 53 52 
3 102 103 54 
3 102 54 104 
3 105 106 55 
3 105 55 107 
3 108 109 110 
3 108 110 111 
3 57 58 59 
3 57 59 56 
3 61 62 63 
3 61 63 60 
3 65 66 67 
3 65 67 64 
3 69 70 71 
3 69 71 68 
3 73 74 75 
3 73 75 72 
3 77 78 79 
3 77 79 76 
3 81 82 83 
3 81 83 80 
3 85 86 87 
3 85 87 84 
3 112 113 89 
3 112 89 114 
3 112 114 115 
3 112 115 88 
3 116 117 118 
3 116 118 90 
3 119 120 121 
3 119 121 91 
3 122 123 124 
3 122 124 125 
3 92 93 126 
3 92 126 127 
3 128 94 129 
3 128 129 130 
3 131 95 132 
3 131 132 133 
3 134 135 136 
3 134 136 137 
3 138 139 96 
3 138 96 97 
3 140 141 99 
3 140 99 98 
3 142 143 144 
3 142 144 145 
3 146 147 148 
3 146 148 149 
3 150 151 152 
3 153 154 155 
3 156 157 158 
3 159 160 161 
3 162 110 109 
3 102 104 163 
3 108 111 164 
3 165 54 103 
3 166 167 168 
3 169 170 171 
3 172 173 174 
3 175 176 177 
3 178 179 180 
3 181 182 183 
3 184 185 186 
3 187 188 189 
3 190 191 192 
3 193 194 195 
3 196 197 198 
3 199 200 201 
3 145 202 142 
3 146 149 203 
3 147 204 148 
3 144 143 205 
3 206 118 207 
3 208 125 209 
3 210 211 212 
3 80 213 87 
3 122 125 214 
3 215 118 117 
3 116 90 216 
3 217 124 123 
3 135 218 136 
3 128 130 219 
3 94 220 129 
3 134 137 221 
3 222 22 21 
3 222 21 223 
3 224 26 25 
3 224 25 225 
3 226 30 29 
3 226 29 227 
3 228 34 33 
3 228 33 229 
3 5 8 11 
3 5 11 6 
3 22 230 231 
3 22 231 23 
3 9 232 233 
3 9 233 10 
3 13 16 19 
3 13 19 14 
3 20 234 235 
3 20 235 21 
3 38 49 48 
3 38 48 39 
3 24 236 237 
3 24 237 25 
3 28 238 239 
3 28 239 29 
3 36 43 42 
3 36 42 37 
3 40 47 46 
3 40 46 41 
3 240 51 50 
3 240 50 241 
3 74 85 84 
3 74 84 75 
3 167 166 242 
3 167 242 243 
3 170 169 244 
3 170 244 245 
3 173 172 246 
3 173 246 247 
3 248 249 166 
3 248 166 168 
3 180 179 250 
3 180 250 251 
3 183 182 252 
3 183 252 253 
3 186 185 254 
3 186 254 255 
3 256 257 179 
3 256 179 178 
3 56 63 62 
3 56 62 57 
3 60 258 259 
3 60 259 61 
3 64 71 70 
3 64 70 65 
3 7 18 17 
3 7 17 4 
3 92 260 261 
3 92 261 93 
3 134 262 263 
3 134 263 135 
3 131 264 265 
3 131 265 95 
3 128 266 267 
3 128 267 94 
3 58 69 68 
3 58 68 59 
3 268 79 78 
3 268 78 269 
3 76 83 82 
3 76 82 77 
3 80 87 86 
3 80 86 81 
3 209 125 124 
3 209 124 270 
3 271 91 121 
3 271 121 272 
3 273 90 118 
3 273 118 206 
