ply
format ascii 1.0
comment VCGLIB generated
comment TextureFile dummy.png
element vertex 30
property float x
property float y
property float z
property float nx
property float ny
property float nz
property float texture_u
property float texture_v
element face 16
property list uchar int vertex_indices
end_header
-28.49005 -21.35461 28.93683 -0.3826213 0 0.9239053 0.0011 0.4552
28.49023 -21.35461 28.93683 0.3826205 0 0.9239056 0.0011 0.2297
28.49023 212.3686 28.93683 0.3826213 0 0.9239053 0.9264 0.2297
-28.49005 212.3686 28.93683 -0.3826205 0 0.9239056 0.9264 0.4552
28.93695 -21.35461 28.49023 0.9238538 0 0.3827456 0.0011 0.2279
28.93695 -21.35461 -28.49008 0.9238991 0 -0.3826363 0.0011 0.0023
28.93695 212.3686 -28.49008 0.9238988 0 -0.3826371 0.9264 0.0023
28.93695 212.3686 28.49023 0.9238541 0 0.3827449 0.9264 0.2279
28.49023 -21.35461 -28.93689 0 0 -1 0.0011 0.91
-28.49005 -21.35461 -28.93689 -0.382729 0 -0.9238607 0.0011 0.6844
-28.49005 212.3686 -28.93689 -0.3827298 0 -0.9238604 0.9264 0.6844
28.49023 212.3686 -28.93689 0 0 -1 0.9264 0.91
-28.93677 -21.35461 -28.49008 -0.9238988 0 -0.3826371 0.0011 0.6826
-28.93677 -21.35461 28.49023 -0.9238541 0 0.3827449 0.0011 0.457
-28.93677 212.3686 28.49023 -0.9238538 0 0.3827456 0.9264 0.457
-28.93677 212.3686 -28.49008 -0.9238991 0 -0.3826363 0.9264 0.6826
-28.49005 212.3686 28.93683 0 -1 0 0.9669 0.7495
28.49023 212.3686 28.93683 0 -1 0 0.9669 0.6125
-28.93677 212.3686 -28.49008 0 -1 0 0.9682 0.749
-28.93677 212.3686 28.49023 0 -1 0 0.9682 0.6121
28.49023 212.3686 -28.93689 0 -1 0 0.9671 0.7499
-28.49005 212.3686 -28.93689 0 -1 0 0.9671 0.613
28.93695 212.3686 28.49023 0 -1 0 0.9678 0.7488
28.93695 212.3686 -28.49008 0 -1 0 0.9678 0.6118
28.49023 212.3686 28.93683 0 -1 0 0.9668 0.7499
-28.49005 212.3686 28.93683 0 -1 0 0.9671 0.611
-28.49005 212.3686 -28.93689 0 -1 0 0.9671 0.7501
28.49023 212.3686 -28.93689 0 -1 0 0.9668 0.6107
28.49023 -21.35461 -28.93689 0.7071778 0 -0.7070358 0.0011 0.0005
28.49023 212.3686 -28.93689 0.7071777 0 -0.7070358 0.9264 0.0005
3 1 2 3 
3 1 3 0 
3 5 6 7 
3 5 7 4 
3 9 10 11 
3 9 11 8 
3 13 14 15 
3 13 15 12 
3 1 4 7 
3 1 7 2 
3 5 28 29 
3 5 29 6 
3 9 12 15 
3 9 15 10 
3 3 14 13 
3 3 13 0 
