ply
format ascii 1.0
comment VCGLIB generated
comment TextureFile dummy.png
element vertex 439
property float x
property float y
property float z
property float nx
property float ny
property float nz
property float texture_u
property float texture_v
element face 760
property list uchar int vertex_indices
end_header
0.9542537 -6.334966 -0.3100543 0.1937992 -0.978268 -0.07371338 0 0.05
0.8117367 -6.334966 -0.5897593 0.1615353 -0.978268 -0.129993 0.05 0.05
0.5897617 -6.334966 -0.8117343 0.1134592 -0.978268 -0.1735478 0.1 0.05
0.3100567 -6.334966 -0.9542513 0.05427676 -0.978268 -0.2001145 0.15 0.05
7.152557e-07 -6.334966 -1.003359 -0.01021856 -0.978268 -0.2070927 0.2 0.05
-0.3100553 -6.334966 -0.9542513 -0.07371352 -0.978268 -0.1937993 0.25 0.05
-0.5897603 -6.334966 -0.8117343 -0.129993 -0.978268 -0.1615352 0.3 0.05
-0.8117353 -6.334966 -0.5897583 -0.1735479 -0.978268 -0.1134589 0.35 0.05
-0.9542513 -6.334966 -0.3100533 -0.2001145 -0.978268 -0.05427681 0.4 0.05
-1.003359 -6.334966 1.66893e-06 -0.2070927 -0.978268 0.01021849 0.45 0.05
-0.9542513 -6.334966 0.3100567 -0.1937993 -0.978268 0.07371337 0.5 0.05
-0.8117353 -6.334966 0.5897617 -0.1615353 -0.978268 0.1299928 0.55 0.05
-0.5897593 -6.334966 0.8117377 -0.1134589 -0.978268 0.1735478 0.6 0.05
-0.3100543 -6.334966 0.9542537 -0.05427667 -0.978268 0.2001147 0.65 0.05
7.152557e-07 -6.334966 1.003362 0.01021843 -0.9782679 0.2070928 0.7 0.05
0.3100557 -6.334966 0.9542537 0.07371355 -0.978268 0.1937992 0.75 0.05
0.5897607 -6.334966 0.8117366 0.129993 -0.978268 0.1615352 0.8 0.05
0.8117357 -6.334966 0.5897617 0.1735477 -0.978268 0.1134592 0.85 0.05
0.9542527 -6.334966 0.3100567 0.2001146 -0.978268 0.05427681 0.9 0.05
1.003361 -6.334966 1.66893e-06 0.2070928 -0.9782679 -0.0102181 0.95 0.05
1.88501 -6.100012 -0.6124743 0.2926312 -0.9510632 -0.09922641 0 0.1
1.603485 -6.100012 -1.164997 0.2476459 -0.9510632 -0.1847983 0.05 0.1
1.165 -6.100012 -1.603482 0.1784196 -0.9510632 -0.2522805 0.1 0.1
0.6124767 -6.100012 -1.885007 0.09172813 -0.9510632 -0.2950677 0.15 0.1
7.152557e-07 -6.100012 -1.982013 -0.003942411 -0.9510631 -0.3089716 0.2 0.1
-0.6124753 -6.100012 -1.885006 -0.09922676 -0.9510631 -0.2926312 0.25 0.1
-1.164998 -6.100012 -1.603482 -0.1847983 -0.9510632 -0.247646 0.3 0.1
-1.603483 -6.100012 -1.164997 -0.2522805 -0.9510632 -0.1784194 0.35 0.1
-1.885007 -6.100012 -0.6124743 -0.2950677 -0.9510632 -0.09172799 0.4 0.1
-1.982014 -6.100012 1.66893e-06 -0.3089715 -0.9510632 0.003942238 0.45 0.1
-1.885007 -6.100012 0.6124777 -0.2926312 -0.9510631 0.09922684 0.5 0.1
-1.603483 -6.100012 1.165001 -0.2476462 -0.951063 0.1847983 0.55 0.1
-1.164998 -6.100012 1.603486 -0.1784196 -0.9510631 0.2522806 0.6 0.1
-0.6124753 -6.100012 1.88501 -0.091728 -0.9510631 0.2950678 0.65 0.1
7.152557e-07 -6.100012 1.982016 0.003942275 -0.9510631 0.3089716 0.7 0.1
0.6124767 -6.100012 1.88501 0.09922682 -0.9510631 0.2926312 0.75 0.1
1.165 -6.100012 1.603485 0.1847984 -0.9510632 0.247646 0.8 0.1
1.603484 -6.100012 1.165001 0.2522805 -0.9510631 0.1784197 0.85 0.1
1.885009 -6.100012 0.6124777 0.2950677 -0.9510632 0.09172816 0.9 0.1
1.982015 -6.100012 1.66893e-06 0.3089716 -0.9510631 -0.003941908 0.95 0.1
2.769351 -5.714855 -0.8998143 0.4305768 -0.8910288 -0.1437751 0 0.15
2.355751 -5.714855 -1.71155 0.3650735 -0.8910288 -0.2697943 0.05 0.15
1.711553 -5.714855 -2.355747 0.2638345 -0.8910288 -0.3694036 0.1 0.15
0.8998167 -5.714855 -2.769347 0.1367697 -0.8910288 -0.4328531 0.15 0.15
7.152557e-07 -5.714855 -2.911864 -0.003683285 -0.8910288 -0.453932 0.2 0.15
-0.8998153 -5.714855 -2.769347 -0.1437757 -0.8910288 -0.4305768 0.25 0.15
-1.711551 -5.714855 -2.355747 -0.2697943 -0.8910288 -0.3650738 0.3 0.15
-2.355748 -5.714855 -1.71155 -0.3694037 -0.8910288 -0.2638347 0.35 0.15
-2.769348 -5.714855 -0.8998143 -0.4328533 -0.8910287 -0.1367696 0.4 0.15
-2.911864 -5.714855 1.66893e-06 -0.4539321 -0.8910287 0.003683215 0.45 0.15
-2.769348 -5.714855 0.8998176 -0.4305768 -0.8910288 0.1437757 0.5 0.15
-2.355747 -5.714855 1.711553 -0.3650737 -0.8910288 0.2697944 0.55 0.15
-1.71155 -5.714855 2.35575 -0.2638348 -0.8910287 0.3694036 0.6 0.15
-0.8998153 -5.714855 2.76935 -0.1367697 -0.8910287 0.4328532 0.65 0.15
7.152557e-07 -5.714855 2.911867 0.003683202 -0.8910287 0.453932 0.7 0.15
0.8998167 -5.714855 2.76935 0.1437757 -0.8910288 0.4305768 0.75 0.15
1.711552 -5.714855 2.35575 0.2697946 -0.8910286 0.3650738 0.8 0.15
2.355749 -5.714855 1.711553 0.3694038 -0.8910286 0.263835 0.85 0.15
2.769349 -5.714855 0.8998176 0.4328533 -0.8910286 0.1367699 0.9 0.15
2.911866 -5.714855 1.66893e-06 0.4539322 -0.8910286 -0.003682673 0.95 0.15
3.585501 -5.18898 -1.164997 0.5579282 -0.8090553 -0.1847854 0 0.2
3.050009 -5.18898 -2.215959 0.473519 -0.8090553 -0.3481514 0.05 0.2
2.215962 -5.18898 -3.050006 0.3427585 -0.8090554 -0.477437 0.1 0.2
1.165 -5.18898 -3.585497 0.1784466 -0.8090554 -0.5599877 0.15 0.2
7.152557e-07 -5.18898 -3.770015 -0.003332827 -0.8090553 -0.5877231 0.2 0.2
-1.164998 -5.18898 -3.585497 -0.1847862 -0.8090553 -0.557928 0.25 0.2
-2.215959 -5.18898 -3.050005 -0.3481514 -0.8090553 -0.473519 0.3 0.2
-3.050006 -5.18898 -2.215958 -0.4774371 -0.8090552 -0.3427588 0.35 0.2
-3.585497 -5.18898 -1.164997 -0.559988 -0.8090552 -0.1784467 0.4 0.2
-3.770015 -5.18898 1.66893e-06 -0.5877233 -0.8090552 0.003332822 0.45 0.2
-3.585497 -5.18898 1.165001 -0.5579281 -0.8090553 0.1847861 0.5 0.2
-3.050006 -5.18898 2.215962 -0.473519 -0.8090553 0.3481514 0.55 0.2
-2.215959 -5.18898 3.050009 -0.3427586 -0.8090554 0.4774369 0.6 0.2
-1.164998 -5.18898 3.5855 -0.1784466 -0.8090554 0.5599877 0.65 0.2
7.152557e-07 -5.18898 3.770017 0.003332764 -0.8090554 0.5877231 0.7 0.2
1.165 -5.18898 3.5855 0.1847863 -0.8090553 0.557928 0.75 0.2
2.21596 -5.18898 3.050008 0.3481516 -0.8090551 0.473519 0.8 0.2
3.050007 -5.18898 2.215961 0.477437 -0.8090551 0.3427589 0.85 0.2
3.585498 -5.18898 1.165001 0.559988 -0.8090551 0.1784469 0.9 0.2
3.770016 -5.18898 1.66893e-06 0.5877234 -0.8090551 -0.003332048 0.95 0.2
4.313364 -4.535334 -1.401494 0.6715478 -0.7071579 -0.2212495 0 0.25
3.669167 -4.535334 -2.665803 0.5703096 -0.7071579 -0.4179411 0.05 0.25
2.665806 -4.535334 -3.669163 0.4132458 -0.7071578 -0.5737211 0.1 0.25
1.401497 -4.535334 -4.313361 0.2157304 -0.7071577 -0.6733413 0.15 0.25
7.152557e-07 -4.535334 -4.535336 -0.002901964 -0.7071578 -0.7070499 0.2 0.25
-1.401495 -4.535334 -4.31336 -0.2212503 -0.7071578 -0.6715477 0.25 0.25
-2.665803 -4.535334 -3.669163 -0.4179412 -0.7071579 -0.5703095 0.3 0.25
-3.669163 -4.535334 -2.665802 -0.5737212 -0.7071577 -0.4132457 0.35 0.25
-4.31336 -4.535334 -1.401494 -0.6733411 -0.7071578 -0.2157305 0.4 0.25
-4.535336 -4.535334 1.66893e-06 -0.7070499 -0.7071578 0.002901836 0.45 0.25
-4.31336 -4.535334 1.401498 -0.6715477 -0.7071577 0.2212503 0.5 0.25
-3.669163 -4.535334 2.665806 -0.5703098 -0.7071577 0.4179412 0.55 0.25
-2.665803 -4.535334 3.669166 -0.4132459 -0.7071576 0.5737212 0.6 0.25
-1.401495 -4.535334 4.313363 -0.2157306 -0.7071575 0.6733414 0.65 0.25
7.152557e-07 -4.535334 4.535337 0.002901941 -0.7071576 0.7070501 0.7 0.25
1.401497 -4.535334 4.313363 0.2212504 -0.7071576 0.6715477 0.75 0.25
2.665804 -4.535334 3.669165 0.4179413 -0.7071577 0.5703096 0.8 0.25
3.669164 -4.535334 2.665805 0.5737211 -0.7071577 0.4132458 0.85 0.25
4.313361 -4.535334 1.401498 0.6733412 -0.7071577 0.2157307 0.9 0.25
4.535336 -4.535334 1.66893e-06 0.70705 -0.7071577 -0.002901084 0.95 0.25
4.935018 -3.770014 -1.603482 0.7686356 -0.5878425 -0.2522707 0 0.3
4.197977 -3.770014 -3.050006 0.6530595 -0.5878425 -0.4774459 0.05 0.3
3.050009 -3.770014 -4.197974 0.4735575 -0.5878424 -0.6558847 0.1 0.3
1.603485 -3.770014 -4.935015 0.2477005 -0.5878425 -0.7701206 0.15 0.3
7.152557e-07 -3.770014 -5.188981 -0.002403134 -0.5878425 -0.8089719 0.2 0.3
-1.603483 -3.770014 -4.935015 -0.2522717 -0.5878425 -0.7686353 0.25 0.3
-3.050006 -3.770014 -4.197973 -0.4774461 -0.5878423 -0.6530595 0.3 0.3
-4.197974 -3.770014 -3.050005 -0.6558846 -0.5878422 -0.4735577 0.35 0.3
-4.935015 -3.770014 -1.603482 -0.7701207 -0.5878423 -0.2477006 0.4 0.3
-5.188981 -3.770014 1.66893e-06 -0.808972 -0.5878423 0.002403083 0.45 0.3
-4.935015 -3.770014 1.603486 -0.7686355 -0.5878424 0.2522715 0.5 0.3
-4.197973 -3.770014 3.050009 -0.6530595 -0.5878423 0.477446 0.55 0.3
-3.050006 -3.770014 4.197976 -0.4735576 -0.5878423 0.6558846 0.6 0.3
-1.603483 -3.770014 4.935016 -0.2477006 -0.5878423 0.7701207 0.65 0.3
7.152557e-07 -3.770014 5.188983 0.002403184 -0.5878422 0.8089721 0.7 0.3
1.603484 -3.770014 4.935016 0.2522716 -0.5878422 0.7686356 0.75 0.3
3.050007 -3.770014 4.197976 0.4774459 -0.5878422 0.6530597 0.8 0.3
4.197975 -3.770014 3.050008 0.6558845 -0.5878425 0.4735576 0.85 0.3
4.935015 -3.770014 1.603485 0.7701207 -0.5878423 0.2477007 0.9 0.3
5.188982 -3.770014 1.66893e-06 0.8089721 -0.5878423 -0.00240227 0.95 0.3
5.435155 -2.911864 -1.765987 0.8467981 -0.4540448 -0.2770855 0 0.35
4.62342 -2.911864 -3.359108 0.7197282 -0.4540448 -0.5251997 0.05 0.35
3.359111 -2.911864 -4.623416 0.5222065 -0.4540447 -0.7219029 0.1 0.35
1.765989 -2.911864 -5.435152 0.2735678 -0.4540446 -0.8479412 0.15 0.35
7.152557e-07 -2.911864 -5.714857 -0.001849847 -0.4540446 -0.890977 0.2 0.35
-1.765987 -2.911864 -5.435152 -0.2770865 -0.4540446 -0.8467979 0.25 0.35
-3.359108 -2.911864 -4.623415 -0.5251998 -0.4540446 -0.7197282 0.3 0.35
-4.623416 -2.911864 -3.359107 -0.721903 -0.4540445 -0.5222066 0.35 0.35
-5.435151 -2.911864 -1.765986 -0.8479413 -0.4540443 -0.2735679 0.4 0.35
-5.714856 -2.911864 1.66893e-06 -0.8909772 -0.4540444 0.001849752 0.45 0.35
-5.435151 -2.911864 1.76599 -0.8467981 -0.4540443 0.2770863 0.5 0.35
-4.623416 -2.911864 3.359111 -0.7197284 -0.4540444 0.5251998 0.55 0.35
-3.359108 -2.911864 4.623418 -0.5222067 -0.4540446 0.7219028 0.6 0.35
-1.765987 -2.911864 5.435154 -0.2735678 -0.4540445 0.8479412 0.65 0.35
7.152557e-07 -2.911864 5.714859 0.001849938 -0.4540445 0.8909771 0.7 0.35
1.765988 -2.911864 5.435153 0.2770864 -0.4540443 0.846798 0.75 0.35
3.359109 -2.911864 4.623418 0.5251997 -0.4540442 0.7197285 0.8 0.35
4.623417 -2.911864 3.35911 0.7219029 -0.4540443 0.5222068 0.85 0.35
5.435152 -2.911864 1.76599 0.8479412 -0.4540444 0.2735679 0.9 0.35
5.714857 -2.911864 1.66893e-06 0.8909771 -0.4540445 -0.001848811 0.95 0.35
5.801462 -1.982013 -1.885007 0.904107 -0.3090591 -0.2950815 0 0.4
4.935018 -1.982013 -3.585498 0.768671 -0.3090591 -0.5600244 0.05 0.4
3.585501 -1.982013 -4.935016 0.5579924 -0.3090591 -0.7701474 0.1 0.4
1.885009 -1.982013 -5.801458 0.2926939 -0.3090589 -0.9048828 0.15 0.4
7.152557e-07 -1.982013 -6.100015 -0.001255808 -0.3090589 -0.9510421 0.2 0.4
-1.885007 -1.982013 -5.801457 -0.2950826 -0.3090587 -0.9041067 0.25 0.4
-3.585498 -1.982013 -4.935015 -0.5600245 -0.3090587 -0.7686712 0.3 0.4
-4.935015 -1.982013 -3.585497 -0.7701473 -0.309059 -0.5579925 0.35 0.4
-5.801457 -1.982013 -1.885006 -0.9048828 -0.309059 -0.2926939 0.4 0.4
-6.100014 -1.982013 1.66893e-06 -0.9510421 -0.309059 0.001255647 0.45 0.4
-5.801457 -1.982013 1.88501 -0.9041067 -0.309059 0.2950824 0.5 0.4
-4.935015 -1.982013 3.5855 -0.7686712 -0.3090589 0.5600243 0.55 0.4
-3.585497 -1.982013 4.935017 -0.5579927 -0.3090588 0.7701473 0.6 0.4
-1.885007 -1.982013 5.801459 -0.2926939 -0.3090588 0.9048828 0.65 0.4
7.152557e-07 -1.982013 6.100015 0.001255828 -0.3090588 0.9510422 0.7 0.4
1.885008 -1.982013 5.801458 0.2950825 -0.3090589 0.9041067 0.75 0.4
3.585498 -1.982013 4.935016 0.5600243 -0.3090589 0.7686712 0.8 0.4
4.935015 -1.982013 3.5855 0.7701472 -0.3090588 0.5579929 0.85 0.4
5.801457 -1.982013 1.88501 0.9048828 -0.309059 0.292694 0.9 0.4
6.100014 -1.982013 1.66893e-06 0.9510421 -0.3090589 -0.001254664 0.95 0.4
6.024916 -1.003359 -1.957612 0.9391481 -0.1564571 -0.3058139 0 0.45
5.1251 -1.003359 -3.7236 0.7986805 -0.1564571 -0.5810599 0.05 0.45
3.723603 -1.003359 -5.125097 0.5800328 -0.1564574 -0.7994267 0.1 0.45
1.957614 -1.003359 -6.024912 0.3046076 -0.1564575 -0.9395399 0.15 0.45
7.152557e-07 -1.003359 -6.334969 -0.0006346472 -0.1564574 -0.9876845 0.2 0.45
-1.957612 -1.003359 -6.024912 -0.3058152 -0.1564575 -0.9391476 0.25 0.45
-3.7236 -1.003359 -5.125095 -0.5810599 -0.1564572 -0.7986805 0.3 0.45
-5.125096 -1.003359 -3.723599 -0.7994266 -0.1564572 -0.5800331 0.35 0.45
-6.024912 -1.003359 -1.957611 -0.9395399 -0.1564575 -0.3046077 0.4 0.45
-6.334968 -1.003359 1.66893e-06 -0.9876845 -0.1564575 0.0006345312 0.45 0.45
-6.024912 -1.003359 1.957615 -0.9391477 -0.1564576 0.3058148 0.5 0.45
-5.125096 -1.003359 3.723603 -0.7986805 -0.1564575 0.5810599 0.55 0.45
-3.7236 -1.003359 5.125097 -0.5800329 -0.1564572 0.7994267 0.6 0.45
-1.957612 -1.003359 6.024914 -0.3046077 -0.156457 0.93954 0.65 0.45
7.152557e-07 -1.003359 6.334969 0.0006346573 -0.1564572 0.9876845 0.7 0.45
1.957613 -1.003359 6.024914 0.3058148 -0.1564575 0.9391477 0.75 0.45
3.723601 -1.003359 5.125097 0.5810598 -0.1564576 0.7986805 0.8 0.45
5.125096 -1.003359 3.723602 0.7994265 -0.1564575 0.5800331 0.85 0.45
6.024913 -1.003359 1.957614 0.9395399 -0.1564573 0.3046078 0.9 0.45
6.334968 -1.003359 1.66893e-06 0.9876845 -0.1564572 -0.0006336236 0.95 0.45
6.100017 9.536743e-07 -1.982013 0.9510568 2.648174e-08 -0.3090161 0 0.5
5.188985 9.536743e-07 -3.770015 0.8090171 6.305175e-08 -0.5877852 0.05 0.5
3.770018 9.536743e-07 -5.188982 0.5877851 1.488021e-07 -0.8090171 0.1 0.5
1.982016 9.536743e-07 -6.100015 0.3090169 6.809588e-08 -0.9510566 0.15 0.5
7.152557e-07 9.536743e-07 -6.413935 -1.210593e-07 -4.035311e-08 -1 0.2 0.5
-1.982014 9.536743e-07 -6.100014 -0.3090174 5.296346e-08 -0.9510564 0.25 0.5
-3.770015 9.536743e-07 -5.18898 -0.5877855 0 -0.8090169 0.3 0.5
-5.188981 9.536743e-07 -3.770014 -0.8090169 6.305175e-08 -0.5877854 0.35 0.5
-6.100014 9.536743e-07 -1.982013 -0.9510565 2.52207e-08 -0.309017 0.4 0.5
-6.413934 9.536743e-07 1.66893e-06 -1 3.783105e-08 0 0.45 0.5
-6.100014 9.536743e-07 1.982017 -0.9510565 4.539725e-08 0.3090169 0.5 0.5
-5.188981 9.536743e-07 3.770018 -0.8090169 1.765449e-08 0.5877854 0.55 0.5
-3.770015 9.536743e-07 5.188983 -0.5877851 2.017656e-08 0.8090171 0.6 0.5
-1.982014 9.536743e-07 6.100015 -0.3090169 -1.765449e-08 0.9510565 0.65 0.5
7.152557e-07 9.536743e-07 6.413935 4.035311e-08 4.791933e-08 1 0.7 0.5
1.982015 9.536743e-07 6.100015 0.309017 1.034049e-07 0.9510565 0.75 0.5
3.770016 9.536743e-07 5.188983 0.5877853 7.314002e-08 0.809017 0.8 0.5
5.188982 9.536743e-07 3.770017 0.8090171 -5.044139e-09 0.5877852 0.85 0.5
6.100014 9.536743e-07 1.982016 0.9510565 -2.52207e-08 0.3090169 0.9 0.5
6.413934 9.536743e-07 1.66893e-06 1 3.026483e-08 8.827242e-07 0.95 0.5
6.024916 1.00336 -1.957612 0.9395403 0.156457 -0.3046069 0 0.55
5.1251 1.00336 -3.7236 0.7994266 0.1564571 -0.5800331 0.05 0.55
3.723603 1.00336 -5.125097 0.5810596 0.1564572 -0.7986808 0.1 0.55
1.957614 1.00336 -6.024912 0.3058147 0.1564574 -0.9391478 0.15 0.55
7.152557e-07 1.00336 -6.334969 0.0006344102 0.1564575 -0.9876845 0.2 0.55
-1.957612 1.00336 -6.024912 -0.3046081 0.1564573 -0.9395398 0.25 0.55
-3.7236 1.00336 -5.125095 -0.5800332 0.156457 -0.7994264 0.3 0.55
-5.125096 1.00336 -3.723599 -0.7986807 0.1564572 -0.5810597 0.35 0.55
-6.024912 1.00336 -1.957611 -0.9391477 0.1564574 -0.3058148 0.4 0.55
-6.334968 1.00336 1.66893e-06 -0.9876845 0.1564574 -0.0006345261 0.45 0.55
-6.024912 1.00336 1.957615 -0.9395399 0.1564575 0.3046077 0.5 0.55
-5.125096 1.00336 3.723603 -0.7994265 0.1564574 0.5800331 0.55 0.55
-3.7236 1.00336 5.125097 -0.5810597 0.1564571 0.7986807 0.6 0.55
-1.957612 1.00336 6.024914 -0.3058147 0.1564571 0.9391478 0.65 0.55
7.152557e-07 1.00336 6.334969 -0.0006344758 0.1564572 0.9876845 0.7 0.55
1.957613 1.00336 6.024914 0.3046078 0.1564574 0.9395399 0.75 0.55
3.723601 1.00336 5.125097 0.580033 0.1564574 0.7994266 0.8 0.55
5.125096 1.00336 3.723602 0.7986805 0.1564574 0.5810599 0.85 0.55
6.024913 1.00336 1.957614 0.9391477 0.1564573 0.3058148 0.9 0.55
6.334968 1.00336 1.66893e-06 0.9876845 0.1564571 0.0006355194 0.95 0.55
5.801462 1.982015 -1.885007 0.904883 0.3090593 -0.292693 0 0.6
4.935018 1.982015 -3.585498 0.7701471 0.3090592 -0.5579927 0.05 0.6
3.585501 1.982015 -4.935016 0.5600241 0.3090592 -0.7686712 0.1 0.6
1.885009 1.982015 -5.801458 0.2950822 0.309059 -0.9041068 0.15 0.6
7.152557e-07 1.982015 -6.100015 0.001255582 0.3090589 -0.9510421 0.2 0.6
-1.885007 1.982015 -5.801457 -0.2926942 0.309059 -0.9048827 0.25 0.6
-3.585498 1.982015 -4.935015 -0.5579928 0.309059 -0.7701472 0.3 0.6
-4.935015 1.982015 -3.585497 -0.7686713 0.3090589 -0.5600242 0.35 0.6
-5.801457 1.982015 -1.885006 -0.9041067 0.3090591 -0.2950823 0.4 0.6
-6.100014 1.982015 1.66893e-06 -0.9510421 0.3090591 -0.001255662 0.45 0.6
-5.801457 1.982015 1.88501 -0.9048828 0.3090591 0.2926939 0.5 0.6
-4.935015 1.982015 3.5855 -0.7701471 0.3090591 0.5579926 0.55 0.6
-3.585497 1.982015 4.935017 -0.5600243 0.309059 0.7686712 0.6 0.6
-1.885007 1.982015 5.801459 -0.2950823 0.3090587 0.9041069 0.65 0.6
7.152557e-07 1.982015 6.100015 -0.00125542 0.3090588 0.9510421 0.7 0.6
1.885008 1.982015 5.801458 0.292694 0.309059 0.9048827 0.75 0.6
3.585498 1.982015 4.935016 0.5579926 0.309059 0.7701473 0.8 0.6
4.935015 1.982015 3.5855 0.7686711 0.309059 0.5600244 0.85 0.6
5.801457 1.982015 1.88501 0.9041067 0.309059 0.2950824 0.9 0.6
6.100014 1.982015 1.66893e-06 0.951042 0.3090592 0.001256629 0.95 0.6
5.435155 2.911865 -1.765987 0.8479414 0.4540447 -0.273567 0 0.65
4.62342 2.911865 -3.359108 0.7219028 0.4540447 -0.5222068 0.05 0.65
3.359111 2.911865 -4.623416 0.5251995 0.4540446 -0.7197285 0.1 0.65
1.765989 2.911865 -5.435152 0.2770861 0.4540446 -0.846798 0.15 0.65
7.152557e-07 2.911865 -5.714857 0.001849706 0.4540445 -0.8909771 0.2 0.65
-1.765987 2.911865 -5.435152 -0.2735682 0.4540443 -0.8479412 0.25 0.65
-3.359108 2.911865 -4.623415 -0.522207 0.4540444 -0.7219028 0.3 0.65
-4.623416 2.911865 -3.359107 -0.7197286 0.4540444 -0.5251995 0.35 0.65
-5.435151 2.911865 -1.765986 -0.8467982 0.4540442 -0.2770862 0.4 0.65
-5.714856 2.911865 1.66893e-06 -0.8909773 0.4540443 -0.001849737 0.45 0.65
-5.435151 2.911865 1.76599 -0.8479413 0.4540443 0.2735679 0.5 0.65
-4.623416 2.911865 3.359111 -0.7219029 0.4540443 0.5222068 0.55 0.65
-3.359108 2.911865 4.623418 -0.5251995 0.4540444 0.7197285 0.6 0.65
-1.765987 2.911865 5.435154 -0.2770863 0.4540446 0.8467979 0.65 0.65
7.152557e-07 2.911865 5.714859 -0.00184947 0.4540443 0.8909773 0.7 0.65
1.765988 2.911865 5.435153 0.273568 0.4540441 0.8479413 0.75 0.65
3.359109 2.911865 4.623418 0.5222068 0.4540441 0.7219031 0.8 0.65
4.623417 2.911865 3.35911 0.7197285 0.4540443 0.5251997 0.85 0.65
5.435152 2.911865 1.76599 0.8467981 0.4540443 0.2770863 0.9 0.65
5.714857 2.911865 1.66893e-06 0.8909773 0.4540442 0.001850551 0.95 0.65
4.935018 3.770012 -1.603482 0.770121 0.5878422 -0.2476999 0 0.7
4.197977 3.770012 -3.050006 0.6558846 0.5878422 -0.4735578 0.05 0.7
3.050009 3.770012 -4.197974 0.4774459 0.5878421 -0.6530598 0.1 0.7
1.603485 3.770012 -4.935015 0.2522714 0.5878422 -0.7686356 0.15 0.7
7.152557e-07 3.770012 -5.188981 0.002403049 0.5878423 -0.808972 0.2 0.7
-1.603483 3.770012 -4.935015 -0.2477008 0.5878422 -0.7701207 0.25 0.7
-3.050006 3.770012 -4.197973 -0.4735579 0.5878421 -0.6558846 0.3 0.7
-4.197974 3.770012 -3.050005 -0.6530598 0.5878421 -0.477446 0.35 0.7
-4.935015 3.770012 -1.603482 -0.7686357 0.5878421 -0.2522715 0.4 0.7
-5.188981 3.770012 1.66893e-06 -0.8089722 0.587842 -0.002403095 0.45 0.7
-4.935015 3.770012 1.603486 -0.7701209 0.587842 0.2477007 0.5 0.7
-4.197973 3.770012 3.050009 -0.6558847 0.5878421 0.4735578 0.55 0.7
-3.050006 3.770012 4.197976 -0.477446 0.587842 0.6530599 0.6 0.7
-1.603483 3.770012 4.935016 -0.2522716 0.587842 0.7686357 0.65 0.7
7.152557e-07 3.770012 5.188983 -0.002402984 0.587842 0.8089722 0.7 0.7
1.603484 3.770012 4.935016 0.2477009 0.5878419 0.7701209 0.75 0.7
3.050007 3.770012 4.197976 0.4735577 0.5878421 0.6558847 0.8 0.7
4.197975 3.770012 3.050008 0.6530597 0.5878421 0.477446 0.85 0.7
4.935015 3.770012 1.603485 0.7686356 0.5878422 0.2522716 0.9 0.7
5.188982 3.770012 1.66893e-06 0.8089722 0.5878421 0.002403883 0.95 0.7
4.313364 4.535332 -1.401494 0.6733409 0.7071583 -0.2157296 0 0.75
3.669167 4.535332 -2.665803 0.5737206 0.7071583 -0.4132456 0.05 0.75
2.665806 4.535332 -3.669163 0.4179408 0.7071583 -0.5703093 0.1 0.75
1.401497 4.535332 -4.313361 0.22125 0.7071583 -0.6715472 0.15 0.75
7.152557e-07 4.535332 -4.535336 0.002901749 0.7071581 -0.7070495 0.2 0.75
-1.401495 4.535332 -4.31336 -0.2157305 0.7071583 -0.6733406 0.25 0.75
-2.665803 4.535332 -3.669163 -0.4132457 0.7071582 -0.5737206 0.3 0.75
-3.669163 4.535332 -2.665802 -0.5703095 0.7071581 -0.4179408 0.35 0.75
-4.31336 4.535332 -1.401494 -0.6715472 0.7071583 -0.2212501 0.4 0.75
-4.535336 4.535332 1.66893e-06 -0.7070495 0.7071582 -0.002901861 0.45 0.75
-4.31336 4.535332 1.401498 -0.6733409 0.7071581 0.2157304 0.5 0.75
-3.669163 4.535332 2.665806 -0.5737208 0.707158 0.4132457 0.55 0.75
-2.665803 4.535332 3.669166 -0.417941 0.707158 0.5703095 0.6 0.75
-1.401495 4.535332 4.313363 -0.2212501 0.707158 0.6715475 0.65 0.75
7.152557e-07 4.535332 4.535337 -0.002901921 0.707158 0.7070497 0.7 0.75
1.401497 4.535332 4.313363 0.2157307 0.707158 0.6733408 0.75 0.75
2.665804 4.535332 3.669165 0.4132458 0.7071581 0.5737207 0.8 0.75
3.669164 4.535332 2.665805 0.5703093 0.7071581 0.4179409 0.85 0.75
4.313361 4.535332 1.401498 0.6715472 0.7071583 0.2212502 0.9 0.75
4.535336 4.535332 1.66893e-06 0.7070495 0.7071581 0.002902646 0.95 0.75
3.585501 5.188982 -1.164997 0.5599879 0.8090554 -0.1784461 0 0.8
3.050009 5.188982 -2.215959 0.4774367 0.8090555 -0.3427586 0.05 0.8
2.215962 5.188982 -3.050006 0.348151 0.8090554 -0.473519 0.1 0.8
1.165 5.188982 -3.585497 0.1847859 0.8090554 -0.5579279 0.15 0.8
7.152557e-07 5.188982 -3.770015 0.003332646 0.8090554 -0.5877231 0.2 0.8
-1.164998 5.188982 -3.585497 -0.1784469 0.8090553 -0.5599878 0.25 0.8
-2.215959 5.188982 -3.050005 -0.3427588 0.8090553 -0.4774368 0.3 0.8
-3.050006 5.188982 -2.215958 -0.4735191 0.8090553 -0.3481512 0.35 0.8
-3.585497 5.188982 -1.164997 -0.5579281 0.8090553 -0.184786 0.4 0.8
-3.770015 5.188982 1.66893e-06 -0.5877231 0.8090553 -0.003332771 0.45 0.8
-3.585497 5.188982 1.165001 -0.5599878 0.8090553 0.1784468 0.5 0.8
-3.050006 5.188982 2.215962 -0.4774368 0.8090554 0.3427586 0.55 0.8
-2.215959 5.188982 3.050009 -0.3481512 0.8090554 0.4735189 0.6 0.8
-1.164998 5.188982 3.5855 -0.1847859 0.8090553 0.557928 0.65 0.8
7.152557e-07 5.188982 3.770017 -0.003332712 0.8090554 0.5877231 0.7 0.8
1.165 5.188982 3.5855 0.1784469 0.8090553 0.5599877 0.75 0.8
2.21596 5.188982 3.050008 0.342759 0.8090552 0.4774368 0.8 0.8
3.050007 5.188982 2.215961 0.473519 0.8090552 0.3481514 0.85 0.8
3.585498 5.188982 1.165001 0.5579281 0.8090552 0.1847862 0.9 0.8
3.770016 5.188982 1.66893e-06 0.5877233 0.8090552 0.003333402 0.95 0.8
2.769351 5.714852 -0.8998143 0.4328534 0.8910287 -0.1367693 0 0.85
2.355751 5.714852 -1.71155 0.3694037 0.8910287 -0.2638348 0.05 0.85
1.711553 5.714852 -2.355747 0.2697943 0.8910287 -0.3650739 0.1 0.85
0.8998167 5.714852 -2.769347 0.1437756 0.8910286 -0.430577 0.15 0.85
7.152557e-07 5.714852 -2.911864 0.00368319 0.8910286 -0.4539322 0.2 0.85
-0.8998153 5.714852 -2.769347 -0.1367698 0.8910286 -0.4328533 0.25 0.85
-1.711551 5.714852 -2.355747 -0.2638349 0.8910286 -0.3694038 0.3 0.85
-2.355748 5.714852 -1.71155 -0.365074 0.8910286 -0.2697944 0.35 0.85
-2.769348 5.714852 -0.8998143 -0.4305772 0.8910286 -0.1437757 0.4 0.85
-2.911864 5.714852 1.66893e-06 -0.4539323 0.8910286 -0.003683228 0.45 0.85
-2.769348 5.714852 0.8998176 -0.4328534 0.8910286 0.1367698 0.5 0.85
-2.355747 5.714852 1.711553 -0.3694038 0.8910286 0.263835 0.55 0.85
-1.71155 5.714852 2.35575 -0.2697944 0.8910286 0.3650739 0.6 0.85
-0.8998153 5.714852 2.76935 -0.1437757 0.8910286 0.430577 0.65 0.85
7.152557e-07 5.714852 2.911867 -0.00368323 0.8910286 0.4539323 0.7 0.85
0.8998167 5.714852 2.76935 0.1367699 0.8910286 0.4328534 0.75 0.85
1.711552 5.714852 2.35575 0.2638351 0.8910285 0.3694039 0.8 0.85
2.355749 5.714852 1.711553 0.3650741 0.8910285 0.2697947 0.85 0.85
2.769349 5.714852 0.8998176 0.4305772 0.8910285 0.1437759 0.9 0.85
2.911866 5.714852 1.66893e-06 0.4539324 0.8910285 0.003683782 0.95 0.85
1.88501 6.100012 -0.6124743 0.2950674 0.9510633 -0.09172771 0 0.9
1.603485 6.100012 -1.164997 0.2522802 0.9510632 -0.1784195 0.05 0.9
1.165 6.100012 -1.603482 0.1847982 0.9510632 -0.2476459 0.1 0.9
0.6124767 6.100012 -1.885007 0.09922671 0.9510632 -0.2926311 0.15 0.9
7.152557e-07 6.100012 -1.982013 0.003942147 0.9510632 -0.3089715 0.2 0.9
-0.6124753 6.100012 -1.885006 -0.09172808 0.9510632 -0.2950675 0.25 0.9
-1.164998 6.100012 -1.603482 -0.1784194 0.9510633 -0.2522803 0.3 0.9
-1.603483 6.100012 -1.164997 -0.2476459 0.9510632 -0.184798 0.35 0.9
-1.885007 6.100012 -0.6124743 -0.292631 0.9510632 -0.09922662 0.4 0.9
-1.982014 6.100012 1.66893e-06 -0.3089713 0.9510632 -0.003942232 0.45 0.9
-1.885007 6.100012 0.6124777 -0.2950675 0.9510632 0.091728 0.5 0.9
-1.603483 6.100012 1.165001 -0.2522804 0.9510632 0.1784195 0.55 0.9
-1.164998 6.100012 1.603486 -0.1847982 0.9510632 0.2476461 0.6 0.9
-0.6124753 6.100012 1.88501 -0.09922665 0.9510632 0.2926311 0.65 0.9
7.152557e-07 6.100012 1.982016 -0.003942282 0.9510632 0.3089715 0.7 0.9
0.6124767 6.100012 1.88501 0.0917281 0.9510632 0.2950675 0.75 0.9
1.165 6.100012 1.603485 0.1784195 0.9510632 0.2522803 0.8 0.9
1.603484 6.100012 1.165001 0.2476459 0.9510632 0.1847983 0.85 0.9
1.885009 6.100012 0.6124777 0.292631 0.9510632 0.09922677 0.9 0.9
1.982015 6.100012 1.66893e-06 0.3089715 0.9510632 0.003942599 0.95 0.9
0.9542537 6.334972 -0.3100543 0.2001145 0.978268 -0.05427645 0 0.95
0.8117367 6.334972 -0.5897593 0.1735477 0.978268 -0.1134592 0.05 0.95
0.5897617 6.334972 -0.8117343 0.129993 0.978268 -0.1615352 0.1 0.95
0.3100567 6.334972 -0.9542513 0.0737135 0.978268 -0.1937991 0.15 0.95
7.152557e-07 6.334972 -1.003359 0.01021833 0.978268 -0.2070926 0.2 0.95
-0.3100553 6.334972 -0.9542513 -0.05427685 0.978268 -0.2001146 0.25 0.95
-0.5897603 6.334972 -0.8117343 -0.1134591 0.978268 -0.1735477 0.3 0.95
-0.8117353 6.334972 -0.5897583 -0.1615353 0.978268 -0.1299927 0.35 0.95
-0.9542513 6.334972 -0.3100533 -0.1937992 0.978268 -0.07371334 0.4 0.95
-1.003359 6.334972 1.66893e-06 -0.2070926 0.978268 -0.01021849 0.45 0.95
-0.9542513 6.334972 0.3100567 -0.2001145 0.978268 0.05427679 0.5 0.95
-0.8117353 6.334972 0.5897617 -0.1735477 0.978268 0.1134589 0.55 0.95
-0.5897593 6.334972 0.8117377 -0.1299928 0.978268 0.1615352 0.6 0.95
-0.3100543 6.334972 0.9542537 -0.07371328 0.978268 0.1937992 0.65 0.95
7.152557e-07 6.334972 1.003362 -0.01021842 0.978268 0.2070927 0.7 0.95
0.3100557 6.334972 0.9542537 0.05427679 0.978268 0.2001145 0.75 0.95
0.5897607 6.334972 0.8117366 0.1134592 0.978268 0.1735477 0.8 0.95
0.8117357 6.334972 0.5897617 0.1615352 0.978268 0.1299929 0.85 0.95
0.9542527 6.334972 0.3100567 0.1937991 0.978268 0.07371353 0.9 0.95
1.003361 6.334972 1.66893e-06 0.2070927 0.978268 0.01021859 0.95 0.95
7.152557e-07 -6.413932 1.66893e-06 -8.98101e-10 -1 -3.742088e-11 0.025 0
7.152557e-07 6.413932 1.66893e-06 2.99367e-10 1 -9.355219e-10 0.025 1
0.9542537 -6.334966 -0.3100543 0.1937992 -0.978268 -0.07371338 1 0.05
1.88501 -6.100012 -0.6124743 0.2926312 -0.9510632 -0.09922641 1 0.1
2.769351 -5.714855 -0.8998143 0.4305768 -0.8910288 -0.1437751 1 0.15
3.585501 -5.18898 -1.164997 0.5579282 -0.8090553 -0.1847854 1 0.2
4.313364 -4.535334 -1.401494 0.6715478 -0.7071579 -0.2212495 1 0.25
4.935018 -3.770014 -1.603482 0.7686356 -0.5878425 -0.2522707 1 0.3
5.435155 -2.911864 -1.765987 0.8467981 -0.4540448 -0.2770855 1 0.35
5.801462 -1.982013 -1.885007 0.904107 -0.3090591 -0.2950815 1 0.4
6.024916 -1.003359 -1.957612 0.9391481 -0.1564571 -0.3058139 1 0.45
6.100017 9.536743e-07 -1.982013 0.9510568 2.648174e-08 -0.3090161 1 0.5
6.024916 1.00336 -1.957612 0.9395403 0.156457 -0.3046069 1 0.55
5.801462 1.982015 -1.885007 0.904883 0.3090593 -0.292693 1 0.6
5.435155 2.911865 -1.765987 0.8479414 0.4540447 -0.273567 1 0.65
4.935018 3.770012 -1.603482 0.770121 0.5878422 -0.2476999 1 0.7
4.313364 4.535332 -1.401494 0.6733409 0.7071583 -0.2157296 1 0.75
3.585501 5.188982 -1.164997 0.5599879 0.8090554 -0.1784461 1 0.8
2.769351 5.714852 -0.8998143 0.4328534 0.8910287 -0.1367693 1 0.85
1.88501 6.100012 -0.6124743 0.2950674 0.9510633 -0.09172771 1 0.9
0.9542537 6.334972 -0.3100543 0.2001145 0.978268 -0.05427645 1 0.95
7.152557e-07 -6.413932 1.66893e-06 -8.98101e-10 -1 -3.742088e-11 0.075 0
7.152557e-07 -6.413932 1.66893e-06 -8.98101e-10 -1 -3.742088e-11 0.125 0
7.152557e-07 -6.413932 1.66893e-06 -8.98101e-10 -1 -3.742088e-11 0.175 0
7.152557e-07 -6.413932 1.66893e-06 -8.98101e-10 -1 -3.742088e-11 0.225 0
7.152557e-07 -6.413932 1.66893e-06 -8.98101e-10 -1 -3.742088e-11 0.275 0
7.152557e-07 -6.413932 1.66893e-06 -8.98101e-10 -1 -3.742088e-11 0.325 0
7.152557e-07 -6.413932 1.66893e-06 -8.98101e-10 -1 -3.742088e-11 0.375 0
7.152557e-07 -6.413932 1.66893e-06 -8.98101e-10 -1 -3.742088e-11 0.425 0
7.152557e-07 -6.413932 1.66893e-06 -8.98101e-10 -1 -3.742088e-11 0.475 0
7.152557e-07 -6.413932 1.66893e-06 -8.98101e-10 -1 -3.742088e-11 0.525 0
7.152557e-07 -6.413932 1.66893e-06 -8.98101e-10 -1 -3.742088e-11 0.575 0
7.152557e-07 -6.413932 1.66893e-06 -8.98101e-10 -1 -3.742088e-11 0.625 0
7.152557e-07 -6.413932 1.66893e-06 -8.98101e-10 -1 -3.742088e-11 0.675 0
7.152557e-07 -6.413932 1.66893e-06 -8.98101e-10 -1 -3.742088e-11 0.725 0
7.152557e-07 -6.413932 1.66893e-06 -8.98101e-10 -1 -3.742088e-11 0.775 0
7.152557e-07 -6.413932 1.66893e-06 -8.98101e-10 -1 -3.742088e-11 0.825 0
7.152557e-07 -6.413932 1.66893e-06 -8.98101e-10 -1 -3.742088e-11 0.875 0
7.152557e-07 -6.413932 1.66893e-06 -8.98101e-10 -1 -3.742088e-11 0.925 0
7.152557e-07 -6.413932 1.66893e-06 -8.98101e-10 -1 -3.742088e-11 0.975 0
7.152557e-07 6.413932 1.66893e-06 2.99367e-10 1 -9.355219e-10 0.075 1
7.152557e-07 6.413932 1.66893e-06 2.99367e-10 1 -9.355219e-10 0.125 1
7.152557e-07 6.413932 1.66893e-06 2.99367e-10 1 -9.355219e-10 0.175 1
7.152557e-07 6.413932 1.66893e-06 2.99367e-10 1 -9.355219e-10 0.225 1
7.152557e-07 6.413932 1.66893e-06 2.99367e-10 1 -9.355219e-10 0.275 1
7.152557e-07 6.413932 1.66893e-06 2.99367e-10 1 -9.355219e-10 0.325 1
7.152557e-07 6.413932 1.66893e-06 2.99367e-10 1 -9.355219e-10 0.375 1
7.152557e-07 6.413932 1.66893e-06 2.99367e-10 1 -9.355219e-10 0.425 1
7.152557e-07 6.413932 1.66893e-06 2.99367e-10 1 -9.355219e-10 0.475 1
7.152557e-07 6.413932 1.66893e-06 2.99367e-10 1 -9.355219e-10 0.525 1
7.152557e-07 6.413932 1.66893e-06 2.99367e-10 1 -9.355219e-10 0.575 1
7.152557e-07 6.413932 1.66893e-06 2.99367e-10 1 -9.355219e-10 0.625 1
7.152557e-07 6.413932 1.66893e-06 2.99367e-10 1 -9.355219e-10 0.675 1
7.152557e-07 6.413932 1.66893e-06 2.99367e-10 1 -9.355219e-10 0.725 1
7.152557e-07 6.413932 1.66893e-06 2.99367e-10 1 -9.355219e-10 0.775 1
7.152557e-07 6.413932 1.66893e-06 2.99367e-10 1 -9.355219e-10 0.825 1
7.152557e-07 6.413932 1.66893e-06 2.99367e-10 1 -9.355219e-10 0.875 1
7.152557e-07 6.413932 1.66893e-06 2.99367e-10 1 -9.355219e-10 0.925 1
7.152557e-07 6.413932 1.66893e-06 2.99367e-10 1 -9.355219e-10 0.975 1
3 0 1 21 
3 0 21 20 
3 1 2 22 
3 1 22 21 
3 2 3 23 
3 2 23 22 
3 3 4 24 
3 3 24 23 
3 4 5 25 
3 4 25 24 
3 5 6 26 
3 5 26 25 
3 6 7 27 
3 6 27 26 
3 7 8 28 
3 7 28 27 
3 8 9 29 
3 8 29 28 
3 9 10 30 
3 9 30 29 
3 10 11 31 
3 10 31 30 
3 11 12 32 
3 11 32 31 
3 12 13 33 
3 12 33 32 
3 13 14 34 
3 13 34 33 
3 14 15 35 
3 14 35 34 
3 15 16 36 
3 15 36 35 
3 16 17 37 
3 16 37 36 
3 17 18 38 
3 17 38 37 
3 18 19 39 
3 18 39 38 
3 19 382 383 
3 19 383 39 
3 20 21 41 
3 20 41 40 
3 21 22 42 
3 21 42 41 
3 22 23 43 
3 22 43 42 
3 23 24 44 
3 23 44 43 
3 24 25 45 
3 24 45 44 
3 25 26 46 
3 25 46 45 
3 26 27 47 
3 26 47 46 
3 27 28 48 
3 27 48 47 
3 28 29 49 
3 28 49 48 
3 29 30 50 
3 29 50 49 
3 30 31 51 
3 30 51 50 
3 31 32 52 
3 31 52 51 
3 32 33 53 
3 32 53 52 
3 33 34 54 
3 33 54 53 
3 34 35 55 
3 34 55 54 
3 35 36 56 
3 35 56 55 
3 36 37 57 
3 36 57 56 
3 37 38 58 
3 37 58 57 
3 38 39 59 
3 38 59 58 
3 39 383 384 
3 39 384 59 
3 40 41 61 
3 40 61 60 
3 41 42 62 
3 41 62 61 
3 42 43 63 
3 42 63 62 
3 43 44 64 
3 43 64 63 
3 44 45 65 
3 44 65 64 
3 45 46 66 
3 45 66 65 
3 46 47 67 
3 46 67 66 
3 47 48 68 
3 47 68 67 
3 48 49 69 
3 48 69 68 
3 49 50 70 
3 49 70 69 
3 50 51 71 
3 50 71 70 
3 51 52 72 
3 51 72 71 
3 52 53 73 
3 52 73 72 
3 53 54 74 
3 53 74 73 
3 54 55 75 
3 54 75 74 
3 55 56 76 
3 55 76 75 
3 56 57 77 
3 56 77 76 
3 57 58 78 
3 57 78 77 
3 58 59 79 
3 58 79 78 
3 59 384 385 
3 59 385 79 
3 60 61 81 
3 60 81 80 
3 61 62 82 
3 61 82 81 
3 62 63 83 
3 62 83 82 
3 63 64 84 
3 63 84 83 
3 64 65 85 
3 64 85 84 
3 65 66 86 
3 65 86 85 
3 66 67 87 
3 66 87 86 
3 67 68 88 
3 67 88 87 
3 68 69 89 
3 68 89 88 
3 69 70 90 
3 69 90 89 
3 70 71 91 
3 70 91 90 
3 71 72 92 
3 71 92 91 
3 72 73 93 
3 72 93 92 
3 73 74 94 
3 73 94 93 
3 74 75 95 
3 74 95 94 
3 75 76 96 
3 75 96 95 
3 76 77 97 
3 76 97 96 
3 77 78 98 
3 77 98 97 
3 78 79 99 
3 78 99 98 
3 79 385 386 
3 79 386 99 
3 80 81 101 
3 80 101 100 
3 81 82 102 
3 81 102 101 
3 82 83 103 
3 82 103 102 
3 83 84 104 
3 83 104 103 
3 84 85 105 
3 84 105 104 
3 85 86 106 
3 85 106 105 
3 86 87 107 
3 86 107 106 
3 87 88 108 
3 87 108 107 
3 88 89 109 
3 88 109 108 
3 89 90 110 
3 89 110 109 
3 90 91 111 
3 90 111 110 
3 91 92 112 
3 91 112 111 
3 92 93 113 
3 92 113 112 
3 93 94 114 
3 93 114 113 
3 94 95 115 
3 94 115 114 
3 95 96 116 
3 95 116 115 
3 96 97 117 
3 96 117 116 
3 97 98 118 
3 97 118 117 
3 98 99 119 
3 98 119 118 
3 99 386 387 
3 99 387 119 
3 100 101 121 
3 100 121 120 
3 101 102 122 
3 101 122 121 
3 102 103 123 
3 102 123 122 
3 103 104 124 
3 103 124 123 
3 104 105 125 
3 104 125 124 
3 105 106 126 
3 105 126 125 
3 106 107 127 
3 106 127 126 
3 107 108 128 
3 107 128 127 
3 108 109 129 
3 108 129 128 
3 109 110 130 
3 109 130 129 
3 110 111 131 
3 110 131 130 
3 111 112 132 
3 111 132 131 
3 112 113 133 
3 112 133 132 
3 113 114 134 
3 113 134 133 
3 114 115 135 
3 114 135 134 
3 115 116 136 
3 115 136 135 
3 116 117 137 
3 116 137 136 
3 117 118 138 
3 117 138 137 
3 118 119 139 
3 118 139 138 
3 119 387 388 
3 119 388 139 
3 120 121 141 
3 120 141 140 
3 121 122 142 
3 121 142 141 
3 122 123 143 
3 122 143 142 
3 123 124 144 
3 123 144 143 
3 124 125 145 
3 124 145 144 
3 125 126 146 
3 125 146 145 
3 126 127 147 
3 126 147 146 
3 127 128 148 
3 127 148 147 
3 128 129 149 
3 128 149 148 
3 129 130 150 
3 129 150 149 
3 130 131 151 
3 130 151 150 
3 131 132 152 
3 131 152 151 
3 132 133 153 
3 132 153 152 
3 133 134 154 
3 133 154 153 
3 134 135 155 
3 134 155 154 
3 135 136 156 
3 135 156 155 
3 136 137 157 
3 136 157 156 
3 137 138 158 
3 137 158 157 
3 138 139 159 
3 138 159 158 
3 139 388 389 
3 139 389 159 
3 140 141 161 
3 140 161 160 
3 141 142 162 
3 141 162 161 
3 142 143 163 
3 142 163 162 
3 143 144 164 
3 143 164 163 
3 144 145 165 
3 144 165 164 
3 145 146 166 
3 145 166 165 
3 146 147 167 
3 146 167 166 
3 147 148 168 
3 147 168 167 
3 148 149 169 
3 148 169 168 
3 149 150 170 
3 149 170 169 
3 150 151 171 
3 150 171 170 
3 151 152 172 
3 151 172 171 
3 152 153 173 
3 152 173 172 
3 153 154 174 
3 153 174 173 
3 154 155 175 
3 154 175 174 
3 155 156 176 
3 155 176 175 
3 156 157 177 
3 156 177 176 
3 157 158 178 
3 157 178 177 
3 158 159 179 
3 158 179 178 
3 159 389 390 
3 159 390 179 
3 160 161 181 
3 160 181 180 
3 161 162 182 
3 161 182 181 
3 162 163 183 
3 162 183 182 
3 163 164 184 
3 163 184 183 
3 164 165 185 
3 164 185 184 
3 165 166 186 
3 165 186 185 
3 166 167 187 
3 166 187 186 
3 167 168 188 
3 167 188 187 
3 168 169 189 
3 168 189 188 
3 169 170 190 
3 169 190 189 
3 170 171 191 
3 170 191 190 
3 171 172 192 
3 171 192 191 
3 172 173 193 
3 172 193 192 
3 173 174 194 
3 173 194 193 
3 174 175 195 
3 174 195 194 
3 175 176 196 
3 175 196 195 
3 176 177 197 
3 176 197 196 
3 177 178 198 
3 177 198 197 
3 178 179 199 
3 178 199 198 
3 179 390 391 
3 179 391 199 
3 180 181 201 
3 180 201 200 
3 181 182 202 
3 181 202 201 
3 182 183 203 
3 182 203 202 
3 183 184 204 
3 183 204 203 
3 184 185 205 
3 184 205 204 
3 185 186 206 
3 185 206 205 
3 186 187 207 
3 186 207 206 
3 187 188 208 
3 187 208 207 
3 188 189 209 
3 188 209 208 
3 189 190 210 
3 189 210 209 
3 190 191 211 
3 190 211 210 
3 191 192 212 
3 191 212 211 
3 192 193 213 
3 192 213 212 
3 193 194 214 
3 193 214 213 
3 194 195 215 
3 194 215 214 
3 195 196 216 
3 195 216 215 
3 196 197 217 
3 196 217 216 
3 197 198 218 
3 197 218 217 
3 198 199 219 
3 198 219 218 
3 199 391 392 
3 199 392 219 
3 200 201 221 
3 200 221 220 
3 201 202 222 
3 201 222 221 
3 202 203 223 
3 202 223 222 
3 203 204 224 
3 203 224 223 
3 204 205 225 
3 204 225 224 
3 205 206 226 
3 205 226 225 
3 206 207 227 
3 206 227 226 
3 207 208 228 
3 207 228 227 
3 208 209 229 
3 208 229 228 
3 209 210 230 
3 209 230 229 
3 210 211 231 
3 210 231 230 
3 211 212 232 
3 211 232 231 
3 212 213 233 
3 212 233 232 
3 213 214 234 
3 213 234 233 
3 214 215 235 
3 214 235 234 
3 215 216 236 
3 215 236 235 
3 216 217 237 
3 216 237 236 
3 217 218 238 
3 217 238 237 
3 218 219 239 
3 218 239 238 
3 219 392 393 
3 219 393 239 
3 220 221 241 
3 220 241 240 
3 221 222 242 
3 221 242 241 
3 222 223 243 
3 222 243 242 
3 223 224 244 
3 223 244 243 
3 224 225 245 
3 224 245 244 
3 225 226 246 
3 225 246 245 
3 226 227 247 
3 226 247 246 
3 227 228 248 
3 227 248 247 
3 228 229 249 
3 228 249 248 
3 229 230 250 
3 229 250 249 
3 230 231 251 
3 230 251 250 
3 231 232 252 
3 231 252 251 
3 232 233 253 
3 232 253 252 
3 233 234 254 
3 233 254 253 
3 234 235 255 
3 234 255 254 
3 235 236 256 
3 235 256 255 
3 236 237 257 
3 236 257 256 
3 237 238 258 
3 237 258 257 
3 238 239 259 
3 238 259 258 
3 239 393 394 
3 239 394 259 
3 240 241 261 
3 240 261 260 
3 241 242 262 
3 241 262 261 
3 242 243 263 
3 242 263 262 
3 243 244 264 
3 243 264 263 
3 244 245 265 
3 244 265 264 
3 245 246 266 
3 245 266 265 
3 246 247 267 
3 246 267 266 
3 247 248 268 
3 247 268 267 
3 248 249 269 
3 248 269 268 
3 249 250 270 
3 249 270 269 
3 250 251 271 
3 250 271 270 
3 251 252 272 
3 251 272 271 
3 252 253 273 
3 252 273 272 
3 253 254 274 
3 253 274 273 
3 254 255 275 
3 254 275 274 
3 255 256 276 
3 255 276 275 
3 256 257 277 
3 256 277 276 
3 257 258 278 
3 257 278 277 
3 258 259 279 
3 258 279 278 
3 259 394 395 
3 259 395 279 
3 260 261 281 
3 260 281 280 
3 261 262 282 
3 261 282 281 
3 262 263 283 
3 262 283 282 
3 263 264 284 
3 263 284 283 
3 264 265 285 
3 264 285 284 
3 265 266 286 
3 265 286 285 
3 266 267 287 
3 266 287 286 
3 267 268 288 
3 267 288 287 
3 268 269 289 
3 268 289 288 
3 269 270 290 
3 269 290 289 
3 270 271 291 
3 270 291 290 
3 271 272 292 
3 271 292 291 
3 272 273 293 
3 272 293 292 
3 273 274 294 
3 273 294 293 
3 274 275 295 
3 274 295 294 
3 275 276 296 
3 275 296 295 
3 276 277 297 
3 276 297 296 
3 277 278 298 
3 277 298 297 
3 278 279 299 
3 278 299 298 
3 279 395 396 
3 279 396 299 
3 280 281 301 
3 280 301 300 
3 281 282 302 
3 281 302 301 
3 282 283 303 
3 282 303 302 
3 283 284 304 
3 283 304 303 
3 284 285 305 
3 284 305 304 
3 285 286 306 
3 285 306 305 
3 286 287 307 
3 286 307 306 
3 287 288 308 
3 287 308 307 
3 288 289 309 
3 288 309 308 
3 289 290 310 
3 289 310 309 
3 290 291 311 
3 290 311 310 
3 291 292 312 
3 291 312 311 
3 292 293 313 
3 292 313 312 
3 293 294 314 
3 293 314 313 
3 294 295 315 
3 294 315 314 
3 295 296 316 
3 295 316 315 
3 296 297 317 
3 296 317 316 
3 297 298 318 
3 297 318 317 
3 298 299 319 
3 298 319 318 
3 299 396 397 
3 299 397 319 
3 300 301 321 
3 300 321 320 
3 301 302 322 
3 301 322 321 
3 302 303 323 
3 302 323 322 
3 303 304 324 
3 303 324 323 
3 304 305 325 
3 304 325 324 
3 305 306 326 
3 305 326 325 
3 306 307 327 
3 306 327 326 
3 307 308 328 
3 307 328 327 
3 308 309 329 
3 308 329 328 
3 309 310 330 
3 309 330 329 
3 310 311 331 
3 310 331 330 
3 311 312 332 
3 311 332 331 
3 312 313 333 
3 312 333 332 
3 313 314 334 
3 313 334 333 
3 314 315 335 
3 314 335 334 
3 315 316 336 
3 315 336 335 
3 316 317 337 
3 316 337 336 
3 317 318 338 
3 317 338 337 
3 318 319 339 
3 318 339 338 
3 319 397 398 
3 319 398 339 
3 320 321 341 
3 320 341 340 
3 321 322 342 
3 321 342 341 
3 322 323 343 
3 322 343 342 
3 323 324 344 
3 323 344 343 
3 324 325 345 
3 324 345 344 
3 325 326 346 
3 325 346 345 
3 326 327 347 
3 326 347 346 
3 327 328 348 
3 327 348 347 
3 328 329 349 
3 328 349 348 
3 329 330 350 
3 329 350 349 
3 330 331 351 
3 330 351 350 
3 331 332 352 
3 331 352 351 
3 332 333 353 
3 332 353 352 
3 333 334 354 
3 333 354 353 
3 334 335 355 
3 334 355 354 
3 335 336 356 
3 335 356 355 
3 336 337 357 
3 336 357 356 
3 337 338 358 
3 337 358 357 
3 338 339 359 
3 338 359 358 
3 339 398 399 
3 339 399 359 
3 340 341 361 
3 340 361 360 
3 341 342 362 
3 341 362 361 
3 342 343 363 
3 342 363 362 
3 343 344 364 
3 343 364 363 
3 344 345 365 
3 344 365 364 
3 345 346 366 
3 345 366 365 
3 346 347 367 
3 346 367 366 
3 347 348 368 
3 347 368 367 
3 348 349 369 
3 348 369 368 
3 349 350 370 
3 349 370 369 
3 350 351 371 
3 350 371 370 
3 351 352 372 
3 351 372 371 
3 352 353 373 
3 352 373 372 
3 353 354 374 
3 353 374 373 
3 354 355 375 
3 354 375 374 
3 355 356 376 
3 355 376 375 
3 356 357 377 
3 356 377 376 
3 357 358 378 
3 357 378 377 
3 358 359 379 
3 358 379 378 
3 359 399 400 
3 359 400 379 
3 1 0 380 
3 2 1 401 
3 3 2 402 
3 4 3 403 
3 5 4 404 
3 6 5 405 
3 7 6 406 
3 8 7 407 
3 9 8 408 
3 10 9 409 
3 11 10 410 
3 12 11 411 
3 13 12 412 
3 14 13 413 
3 15 14 414 
3 16 15 415 
3 17 16 416 
3 18 17 417 
3 19 18 418 
3 382 19 419 
3 360 361 381 
3 361 362 420 
3 362 363 421 
3 363 364 422 
3 364 365 423 
3 365 366 424 
3 366 367 425 
3 367 368 426 
3 368 369 427 
3 369 370 428 
3 370 371 429 
3 371 372 430 
3 372 373 431 
3 373 374 432 
3 374 375 433 
3 375 376 434 
3 376 377 435 
3 377 378 436 
3 378 379 437 
3 379 400 438 
