ply
format ascii 1.0
comment VCGLIB generated
comment TextureFile wall.png
element vertex 44
property float x
property float y
property float z
property float nx
property float ny
property float nz
property float texture_u
property float texture_v
element face 36
property list uchar int vertex_indices
end_header
-7.85825 -7.086655 413.9825 0 -1 0 0.5512 -2.1962
7.85825 -7.086655 413.9825 0 -1 0 0.4488 -2.1962
-8.85825 -7.086655 -412.9825 0 -1 0 0.5577 3.1897
8.85825 -7.086655 -412.9825 0 -1 0 0.4423 3.1897
-7.85825 206.0867 413.9825 0 0.3826835 0.9238795 0.4488 1.1909
8.85825 206.0867 412.9825 0.9238796 0.3826833 0 -2.1897 1.1909
-8.85825 206.0867 -412.9825 -0.9238796 0.3826833 0 -2.1897 1.1909
7.85825 206.0867 -413.9825 0 0.3826835 -0.9238795 0.4488 1.1909
-8.85825 -7.086655 412.9825 0 -1 0 0.5577 -2.1897
8.85825 -7.086655 412.9825 0 -1 0 0.4423 -2.1897
-7.85825 -7.086655 -413.9825 0 -1 0 0.5512 3.1962
7.85825 -7.086655 -413.9825 0 -1 0 0.4488 3.1962
-7.85825 207.0867 412.9825 0 1 0 0.4488 -2.1897
-8.85825 206.0867 412.9825 -0.8928631 0.378446 0.2440784 3.1897 1.1909
7.85825 207.0867 412.9825 0 1 0 0.5512 -2.1897
7.85825 206.0867 413.9825 0.2440785 0.3784461 0.892863 0.5512 1.1909
-7.85825 207.0867 -412.9825 0 1 0 0.4488 3.1897
-7.85825 206.0867 -413.9825 -0.2440785 0.3784461 -0.892863 0.5512 1.1909
7.85825 207.0867 -412.9825 0 1 0 0.5512 3.1897
8.85825 206.0867 -412.9825 0.8928631 0.378446 -0.2440784 3.1897 1.1909
-7.85825 -7.086655 413.9825 0 0 1 0.4488 -0.1974
7.85825 -7.086655 413.9825 0.5054497 0 0.8628561 0.5512 -0.1974
8.85825 -7.086655 412.9825 1 0 0 -2.1897 -0.1974
8.85825 -7.086655 -412.9825 0.8628563 0 -0.5054494 3.1897 -0.1974
7.85825 -7.086655 -413.9825 0 0 -1 0.4488 -0.1974
-7.85825 -7.086655 -413.9825 -0.5054497 0 -0.8628561 0.5512 -0.1974
-8.85825 -7.086655 -412.9825 -1 0 0 -2.1897 -0.1974
-8.85825 -7.086655 412.9825 -0.8628563 0 0.5054494 3.1897 -0.1974
-7.85825 206.0867 413.9825 -0.6927029 0.200813 0.6927025 3.1962 1.1909
-7.85825 207.0867 412.9825 -0.6738876 0.6738871 0.3029054 3.1897 1.1974
8.85825 206.0867 412.9825 0.6927029 0.200813 0.6927025 0.5577 1.1909
7.85825 207.0867 412.9825 0.3029056 0.6738873 0.6738873 0.5512 1.1974
-8.85825 206.0867 -412.9825 -0.6927029 0.200813 -0.6927025 0.5577 1.1909
-7.85825 207.0867 -412.9825 -0.3029056 0.6738873 -0.6738873 0.5512 1.1974
7.85825 206.0867 -413.9825 0.6927029 0.200813 -0.6927025 3.1962 1.1909
7.85825 207.0867 -412.9825 0.6738876 0.6738871 -0.3029054 3.1897 1.1974
-7.85825 207.0867 412.9825 0 0.7071068 0.7071068 0.4488 1.1974
7.85825 207.0867 412.9825 0.7071069 0.7071066 0 -2.1897 1.1974
7.85825 207.0867 -412.9825 0 0.7071068 -0.7071068 0.4488 1.1974
-7.85825 207.0867 -412.9825 -0.7071069 0.7071066 0 -2.1897 1.1974
8.85825 -7.086655 412.9825 0.707107 0 0.7071066 0.5577 -0.1974
-7.85825 -7.086655 413.9825 -0.707107 0 0.7071066 3.1962 -0.1974
7.85825 -7.086655 -413.9825 0.707107 0 -0.7071066 3.1962 -0.1974
-8.85825 -7.086655 -412.9825 -0.707107 0 -0.7071066 0.5577 -0.1974
3 3 9 1 
3 3 1 0 
3 3 0 8 
3 3 8 2 
3 3 2 10 
3 3 10 11 
3 18 16 12 
3 18 12 14 
3 15 4 20 
3 15 20 21 
3 19 5 22 
3 19 22 23 
3 17 7 24 
3 17 24 25 
3 13 6 26 
3 13 26 27 
3 28 29 13 
3 30 31 15 
3 32 33 17 
3 34 35 19 
3 36 4 15 
3 36 15 31 
3 37 5 19 
3 37 19 35 
3 38 7 17 
3 38 17 33 
3 39 6 13 
3 39 13 29 
3 21 40 30 
3 21 30 15 
3 28 13 27 
3 28 27 41 
3 23 42 34 
3 23 34 19 
3 25 43 32 
3 25 32 17 
